# Lumatable cube-60 (mm)
o cube-60
v 26.50000 0.00000 30.00000
v 30.00000 0.00000 30.00000
v 30.00000 2.62466 30.00000
v 26.39916 2.30963 30.00000
v 26.39916 2.30963 29.20000
v 26.50000 0.00000 29.20000
v 0.00000 0.00000 29.20000
v 30.00000 5.28981 30.00000
v 26.09741 4.60168 30.00000
v 26.09741 4.60168 29.20000
v 30.00000 8.03848 30.00000
v 25.59703 6.85870 30.00000
v 25.59703 6.85870 29.20000
v 30.00000 10.91911 30.00000
v 24.90185 9.06353 30.00000
v 24.90185 9.06353 29.20000
v 30.00000 13.98923 30.00000
v 24.01716 11.19938 30.00000
v 24.01716 11.19938 29.20000
v 30.00000 17.32051 30.00000
v 22.94967 13.25000 30.00000
v 22.94967 13.25000 29.20000
v 30.00000 21.00623 30.00000
v 21.70753 15.19978 30.00000
v 21.70753 15.19978 29.20000
v 30.00000 25.17299 30.00000
v 20.30018 17.03387 30.00000
v 20.30018 17.03387 29.20000
v 30.00000 30.00000 30.00000
v 18.73833 18.73833 30.00000
v 18.73833 18.73833 29.20000
v 25.17299 30.00000 30.00000
v 17.03387 20.30018 30.00000
v 17.03387 20.30018 29.20000
v 21.00623 30.00000 30.00000
v 15.19978 21.70753 30.00000
v 15.19978 21.70753 29.20000
v 17.32051 30.00000 30.00000
v 13.25000 22.94967 30.00000
v 13.25000 22.94967 29.20000
v 13.98923 30.00000 30.00000
v 11.19938 24.01716 30.00000
v 11.19938 24.01716 29.20000
v 10.91911 30.00000 30.00000
v 9.06353 24.90185 30.00000
v 9.06353 24.90185 29.20000
v 8.03848 30.00000 30.00000
v 6.85870 25.59703 30.00000
v 6.85870 25.59703 29.20000
v 5.28981 30.00000 30.00000
v 4.60168 26.09741 30.00000
v 4.60168 26.09741 29.20000
v 2.62466 30.00000 30.00000
v 2.30963 26.39916 30.00000
v 2.30963 26.39916 29.20000
v 0.00000 30.00000 30.00000
v 0.00000 26.50000 30.00000
v 0.00000 26.50000 29.20000
v -2.62466 30.00000 30.00000
v -2.30963 26.39916 30.00000
v -2.30963 26.39916 29.20000
v -5.28981 30.00000 30.00000
v -4.60168 26.09741 30.00000
v -4.60168 26.09741 29.20000
v -8.03848 30.00000 30.00000
v -6.85870 25.59703 30.00000
v -6.85870 25.59703 29.20000
v -10.91911 30.00000 30.00000
v -9.06353 24.90185 30.00000
v -9.06353 24.90185 29.20000
v -13.98923 30.00000 30.00000
v -11.19938 24.01716 30.00000
v -11.19938 24.01716 29.20000
v -17.32051 30.00000 30.00000
v -13.25000 22.94967 30.00000
v -13.25000 22.94967 29.20000
v -21.00623 30.00000 30.00000
v -15.19978 21.70753 30.00000
v -15.19978 21.70753 29.20000
v -25.17299 30.00000 30.00000
v -17.03387 20.30018 30.00000
v -17.03387 20.30018 29.20000
v -30.00000 30.00000 30.00000
v -18.73833 18.73833 30.00000
v -18.73833 18.73833 29.20000
v -30.00000 25.17299 30.00000
v -20.30018 17.03387 30.00000
v -20.30018 17.03387 29.20000
v -30.00000 21.00623 30.00000
v -21.70753 15.19978 30.00000
v -21.70753 15.19978 29.20000
v -30.00000 17.32051 30.00000
v -22.94967 13.25000 30.00000
v -22.94967 13.25000 29.20000
v -30.00000 13.98923 30.00000
v -24.01716 11.19938 30.00000
v -24.01716 11.19938 29.20000
v -30.00000 10.91911 30.00000
v -24.90185 9.06353 30.00000
v -24.90185 9.06353 29.20000
v -30.00000 8.03848 30.00000
v -25.59703 6.85870 30.00000
v -25.59703 6.85870 29.20000
v -30.00000 5.28981 30.00000
v -26.09741 4.60168 30.00000
v -26.09741 4.60168 29.20000
v -30.00000 2.62466 30.00000
v -26.39916 2.30963 30.00000
v -26.39916 2.30963 29.20000
v -30.00000 0.00000 30.00000
v -26.50000 0.00000 30.00000
v -26.50000 0.00000 29.20000
v -30.00000 -2.62466 30.00000
v -26.39916 -2.30963 30.00000
v -26.39916 -2.30963 29.20000
v -30.00000 -5.28981 30.00000
v -26.09741 -4.60168 30.00000
v -26.09741 -4.60168 29.20000
v -30.00000 -8.03848 30.00000
v -25.59703 -6.85870 30.00000
v -25.59703 -6.85870 29.20000
v -30.00000 -10.91911 30.00000
v -24.90185 -9.06353 30.00000
v -24.90185 -9.06353 29.20000
v -30.00000 -13.98923 30.00000
v -24.01716 -11.19938 30.00000
v -24.01716 -11.19938 29.20000
v -30.00000 -17.32051 30.00000
v -22.94967 -13.25000 30.00000
v -22.94967 -13.25000 29.20000
v -30.00000 -21.00623 30.00000
v -21.70753 -15.19978 30.00000
v -21.70753 -15.19978 29.20000
v -30.00000 -25.17299 30.00000
v -20.30018 -17.03387 30.00000
v -20.30018 -17.03387 29.20000
v -30.00000 -30.00000 30.00000
v -18.73833 -18.73833 30.00000
v -18.73833 -18.73833 29.20000
v -25.17299 -30.00000 30.00000
v -17.03387 -20.30018 30.00000
v -17.03387 -20.30018 29.20000
v -21.00623 -30.00000 30.00000
v -15.19978 -21.70753 30.00000
v -15.19978 -21.70753 29.20000
v -17.32051 -30.00000 30.00000
v -13.25000 -22.94967 30.00000
v -13.25000 -22.94967 29.20000
v -13.98923 -30.00000 30.00000
v -11.19938 -24.01716 30.00000
v -11.19938 -24.01716 29.20000
v -10.91911 -30.00000 30.00000
v -9.06353 -24.90185 30.00000
v -9.06353 -24.90185 29.20000
v -8.03848 -30.00000 30.00000
v -6.85870 -25.59703 30.00000
v -6.85870 -25.59703 29.20000
v -5.28981 -30.00000 30.00000
v -4.60168 -26.09741 30.00000
v -4.60168 -26.09741 29.20000
v -2.62466 -30.00000 30.00000
v -2.30963 -26.39916 30.00000
v -2.30963 -26.39916 29.20000
v -0.00000 -30.00000 30.00000
v -0.00000 -26.50000 30.00000
v -0.00000 -26.50000 29.20000
v 2.62466 -30.00000 30.00000
v 2.30963 -26.39916 30.00000
v 2.30963 -26.39916 29.20000
v 5.28981 -30.00000 30.00000
v 4.60168 -26.09741 30.00000
v 4.60168 -26.09741 29.20000
v 8.03848 -30.00000 30.00000
v 6.85870 -25.59703 30.00000
v 6.85870 -25.59703 29.20000
v 10.91911 -30.00000 30.00000
v 9.06353 -24.90185 30.00000
v 9.06353 -24.90185 29.20000
v 13.98923 -30.00000 30.00000
v 11.19938 -24.01716 30.00000
v 11.19938 -24.01716 29.20000
v 17.32051 -30.00000 30.00000
v 13.25000 -22.94967 30.00000
v 13.25000 -22.94967 29.20000
v 21.00623 -30.00000 30.00000
v 15.19978 -21.70753 30.00000
v 15.19978 -21.70753 29.20000
v 25.17299 -30.00000 30.00000
v 17.03387 -20.30018 30.00000
v 17.03387 -20.30018 29.20000
v 30.00000 -30.00000 30.00000
v 18.73833 -18.73833 30.00000
v 18.73833 -18.73833 29.20000
v 30.00000 -25.17299 30.00000
v 20.30018 -17.03387 30.00000
v 20.30018 -17.03387 29.20000
v 30.00000 -21.00623 30.00000
v 21.70753 -15.19978 30.00000
v 21.70753 -15.19978 29.20000
v 30.00000 -17.32051 30.00000
v 22.94967 -13.25000 30.00000
v 22.94967 -13.25000 29.20000
v 30.00000 -13.98923 30.00000
v 24.01716 -11.19938 30.00000
v 24.01716 -11.19938 29.20000
v 30.00000 -10.91911 30.00000
v 24.90185 -9.06353 30.00000
v 24.90185 -9.06353 29.20000
v 30.00000 -8.03848 30.00000
v 25.59703 -6.85870 30.00000
v 25.59703 -6.85870 29.20000
v 30.00000 -5.28981 30.00000
v 26.09741 -4.60168 30.00000
v 26.09741 -4.60168 29.20000
v 30.00000 -2.62466 30.00000
v 26.39916 -2.30963 30.00000
v 26.39916 -2.30963 29.20000
v 0.00000 26.50000 -30.00000
v 0.00000 30.00000 -30.00000
v 2.62466 30.00000 -30.00000
v 2.30963 26.39916 -30.00000
v 2.30963 26.39916 -29.20000
v 0.00000 26.50000 -29.20000
v 0.00000 0.00000 -29.20000
v 5.28981 30.00000 -30.00000
v 4.60168 26.09741 -30.00000
v 4.60168 26.09741 -29.20000
v 8.03848 30.00000 -30.00000
v 6.85870 25.59703 -30.00000
v 6.85870 25.59703 -29.20000
v 10.91911 30.00000 -30.00000
v 9.06353 24.90185 -30.00000
v 9.06353 24.90185 -29.20000
v 13.98923 30.00000 -30.00000
v 11.19938 24.01716 -30.00000
v 11.19938 24.01716 -29.20000
v 17.32051 30.00000 -30.00000
v 13.25000 22.94967 -30.00000
v 13.25000 22.94967 -29.20000
v 21.00623 30.00000 -30.00000
v 15.19978 21.70753 -30.00000
v 15.19978 21.70753 -29.20000
v 25.17299 30.00000 -30.00000
v 17.03387 20.30018 -30.00000
v 17.03387 20.30018 -29.20000
v 30.00000 30.00000 -30.00000
v 18.73833 18.73833 -30.00000
v 18.73833 18.73833 -29.20000
v 30.00000 25.17299 -30.00000
v 20.30018 17.03387 -30.00000
v 20.30018 17.03387 -29.20000
v 30.00000 21.00623 -30.00000
v 21.70753 15.19978 -30.00000
v 21.70753 15.19978 -29.20000
v 30.00000 17.32051 -30.00000
v 22.94967 13.25000 -30.00000
v 22.94967 13.25000 -29.20000
v 30.00000 13.98923 -30.00000
v 24.01716 11.19938 -30.00000
v 24.01716 11.19938 -29.20000
v 30.00000 10.91911 -30.00000
v 24.90185 9.06353 -30.00000
v 24.90185 9.06353 -29.20000
v 30.00000 8.03848 -30.00000
v 25.59703 6.85870 -30.00000
v 25.59703 6.85870 -29.20000
v 30.00000 5.28981 -30.00000
v 26.09741 4.60168 -30.00000
v 26.09741 4.60168 -29.20000
v 30.00000 2.62466 -30.00000
v 26.39916 2.30963 -30.00000
v 26.39916 2.30963 -29.20000
v 30.00000 0.00000 -30.00000
v 26.50000 0.00000 -30.00000
v 26.50000 0.00000 -29.20000
v 30.00000 -2.62466 -30.00000
v 26.39916 -2.30963 -30.00000
v 26.39916 -2.30963 -29.20000
v 30.00000 -5.28981 -30.00000
v 26.09741 -4.60168 -30.00000
v 26.09741 -4.60168 -29.20000
v 30.00000 -8.03848 -30.00000
v 25.59703 -6.85870 -30.00000
v 25.59703 -6.85870 -29.20000
v 30.00000 -10.91911 -30.00000
v 24.90185 -9.06353 -30.00000
v 24.90185 -9.06353 -29.20000
v 30.00000 -13.98923 -30.00000
v 24.01716 -11.19938 -30.00000
v 24.01716 -11.19938 -29.20000
v 30.00000 -17.32051 -30.00000
v 22.94967 -13.25000 -30.00000
v 22.94967 -13.25000 -29.20000
v 30.00000 -21.00623 -30.00000
v 21.70753 -15.19978 -30.00000
v 21.70753 -15.19978 -29.20000
v 30.00000 -25.17299 -30.00000
v 20.30018 -17.03387 -30.00000
v 20.30018 -17.03387 -29.20000
v 30.00000 -30.00000 -30.00000
v 18.73833 -18.73833 -30.00000
v 18.73833 -18.73833 -29.20000
v 25.17299 -30.00000 -30.00000
v 17.03387 -20.30018 -30.00000
v 17.03387 -20.30018 -29.20000
v 21.00623 -30.00000 -30.00000
v 15.19978 -21.70753 -30.00000
v 15.19978 -21.70753 -29.20000
v 17.32051 -30.00000 -30.00000
v 13.25000 -22.94967 -30.00000
v 13.25000 -22.94967 -29.20000
v 13.98923 -30.00000 -30.00000
v 11.19938 -24.01716 -30.00000
v 11.19938 -24.01716 -29.20000
v 10.91911 -30.00000 -30.00000
v 9.06353 -24.90185 -30.00000
v 9.06353 -24.90185 -29.20000
v 8.03848 -30.00000 -30.00000
v 6.85870 -25.59703 -30.00000
v 6.85870 -25.59703 -29.20000
v 5.28981 -30.00000 -30.00000
v 4.60168 -26.09741 -30.00000
v 4.60168 -26.09741 -29.20000
v 2.62466 -30.00000 -30.00000
v 2.30963 -26.39916 -30.00000
v 2.30963 -26.39916 -29.20000
v 0.00000 -30.00000 -30.00000
v 0.00000 -26.50000 -30.00000
v 0.00000 -26.50000 -29.20000
v -2.62466 -30.00000 -30.00000
v -2.30963 -26.39916 -30.00000
v -2.30963 -26.39916 -29.20000
v -5.28981 -30.00000 -30.00000
v -4.60168 -26.09741 -30.00000
v -4.60168 -26.09741 -29.20000
v -8.03848 -30.00000 -30.00000
v -6.85870 -25.59703 -30.00000
v -6.85870 -25.59703 -29.20000
v -10.91911 -30.00000 -30.00000
v -9.06353 -24.90185 -30.00000
v -9.06353 -24.90185 -29.20000
v -13.98923 -30.00000 -30.00000
v -11.19938 -24.01716 -30.00000
v -11.19938 -24.01716 -29.20000
v -17.32051 -30.00000 -30.00000
v -13.25000 -22.94967 -30.00000
v -13.25000 -22.94967 -29.20000
v -21.00623 -30.00000 -30.00000
v -15.19978 -21.70753 -30.00000
v -15.19978 -21.70753 -29.20000
v -25.17299 -30.00000 -30.00000
v -17.03387 -20.30018 -30.00000
v -17.03387 -20.30018 -29.20000
v -30.00000 -30.00000 -30.00000
v -18.73833 -18.73833 -30.00000
v -18.73833 -18.73833 -29.20000
v -30.00000 -25.17299 -30.00000
v -20.30018 -17.03387 -30.00000
v -20.30018 -17.03387 -29.20000
v -30.00000 -21.00623 -30.00000
v -21.70753 -15.19978 -30.00000
v -21.70753 -15.19978 -29.20000
v -30.00000 -17.32051 -30.00000
v -22.94967 -13.25000 -30.00000
v -22.94967 -13.25000 -29.20000
v -30.00000 -13.98923 -30.00000
v -24.01716 -11.19938 -30.00000
v -24.01716 -11.19938 -29.20000
v -30.00000 -10.91911 -30.00000
v -24.90185 -9.06353 -30.00000
v -24.90185 -9.06353 -29.20000
v -30.00000 -8.03848 -30.00000
v -25.59703 -6.85870 -30.00000
v -25.59703 -6.85870 -29.20000
v -30.00000 -5.28981 -30.00000
v -26.09741 -4.60168 -30.00000
v -26.09741 -4.60168 -29.20000
v -30.00000 -2.62466 -30.00000
v -26.39916 -2.30963 -30.00000
v -26.39916 -2.30963 -29.20000
v -30.00000 -0.00000 -30.00000
v -26.50000 -0.00000 -30.00000
v -26.50000 -0.00000 -29.20000
v -30.00000 2.62466 -30.00000
v -26.39916 2.30963 -30.00000
v -26.39916 2.30963 -29.20000
v -30.00000 5.28981 -30.00000
v -26.09741 4.60168 -30.00000
v -26.09741 4.60168 -29.20000
v -30.00000 8.03848 -30.00000
v -25.59703 6.85870 -30.00000
v -25.59703 6.85870 -29.20000
v -30.00000 10.91911 -30.00000
v -24.90185 9.06353 -30.00000
v -24.90185 9.06353 -29.20000
v -30.00000 13.98923 -30.00000
v -24.01716 11.19938 -30.00000
v -24.01716 11.19938 -29.20000
v -30.00000 17.32051 -30.00000
v -22.94967 13.25000 -30.00000
v -22.94967 13.25000 -29.20000
v -30.00000 21.00623 -30.00000
v -21.70753 15.19978 -30.00000
v -21.70753 15.19978 -29.20000
v -30.00000 25.17299 -30.00000
v -20.30018 17.03387 -30.00000
v -20.30018 17.03387 -29.20000
v -30.00000 30.00000 -30.00000
v -18.73833 18.73833 -30.00000
v -18.73833 18.73833 -29.20000
v -25.17299 30.00000 -30.00000
v -17.03387 20.30018 -30.00000
v -17.03387 20.30018 -29.20000
v -21.00623 30.00000 -30.00000
v -15.19978 21.70753 -30.00000
v -15.19978 21.70753 -29.20000
v -17.32051 30.00000 -30.00000
v -13.25000 22.94967 -30.00000
v -13.25000 22.94967 -29.20000
v -13.98923 30.00000 -30.00000
v -11.19938 24.01716 -30.00000
v -11.19938 24.01716 -29.20000
v -10.91911 30.00000 -30.00000
v -9.06353 24.90185 -30.00000
v -9.06353 24.90185 -29.20000
v -8.03848 30.00000 -30.00000
v -6.85870 25.59703 -30.00000
v -6.85870 25.59703 -29.20000
v -5.28981 30.00000 -30.00000
v -4.60168 26.09741 -30.00000
v -4.60168 26.09741 -29.20000
v -2.62466 30.00000 -30.00000
v -2.30963 26.39916 -30.00000
v -2.30963 26.39916 -29.20000
v 30.00000 26.50000 0.00000
v 30.00000 30.00000 0.00000
v 30.00000 30.00000 2.62466
v 30.00000 26.39916 2.30963
v 29.20000 26.39916 2.30963
v 29.20000 26.50000 0.00000
v 29.20000 0.00000 0.00000
v 30.00000 30.00000 5.28981
v 30.00000 26.09741 4.60168
v 29.20000 26.09741 4.60168
v 30.00000 30.00000 8.03848
v 30.00000 25.59703 6.85870
v 29.20000 25.59703 6.85870
v 30.00000 30.00000 10.91911
v 30.00000 24.90185 9.06353
v 29.20000 24.90185 9.06353
v 30.00000 30.00000 13.98923
v 30.00000 24.01716 11.19938
v 29.20000 24.01716 11.19938
v 30.00000 30.00000 17.32051
v 30.00000 22.94967 13.25000
v 29.20000 22.94967 13.25000
v 30.00000 30.00000 21.00623
v 30.00000 21.70753 15.19978
v 29.20000 21.70753 15.19978
v 30.00000 30.00000 25.17299
v 30.00000 20.30018 17.03387
v 29.20000 20.30018 17.03387
v 30.00000 18.73833 18.73833
v 29.20000 18.73833 18.73833
v 30.00000 17.03387 20.30018
v 29.20000 17.03387 20.30018
v 30.00000 15.19978 21.70753
v 29.20000 15.19978 21.70753
v 30.00000 13.25000 22.94967
v 29.20000 13.25000 22.94967
v 30.00000 11.19938 24.01716
v 29.20000 11.19938 24.01716
v 30.00000 9.06353 24.90185
v 29.20000 9.06353 24.90185
v 30.00000 6.85870 25.59703
v 29.20000 6.85870 25.59703
v 30.00000 4.60168 26.09741
v 29.20000 4.60168 26.09741
v 30.00000 2.30963 26.39916
v 29.20000 2.30963 26.39916
v 30.00000 0.00000 26.50000
v 29.20000 0.00000 26.50000
v 30.00000 -2.30963 26.39916
v 29.20000 -2.30963 26.39916
v 30.00000 -4.60168 26.09741
v 29.20000 -4.60168 26.09741
v 30.00000 -6.85870 25.59703
v 29.20000 -6.85870 25.59703
v 30.00000 -9.06353 24.90185
v 29.20000 -9.06353 24.90185
v 30.00000 -11.19938 24.01716
v 29.20000 -11.19938 24.01716
v 30.00000 -13.25000 22.94967
v 29.20000 -13.25000 22.94967
v 30.00000 -15.19978 21.70753
v 29.20000 -15.19978 21.70753
v 30.00000 -17.03387 20.30018
v 29.20000 -17.03387 20.30018
v 30.00000 -18.73833 18.73833
v 29.20000 -18.73833 18.73833
v 30.00000 -30.00000 25.17299
v 30.00000 -20.30018 17.03387
v 29.20000 -20.30018 17.03387
v 30.00000 -30.00000 21.00623
v 30.00000 -21.70753 15.19978
v 29.20000 -21.70753 15.19978
v 30.00000 -30.00000 17.32051
v 30.00000 -22.94967 13.25000
v 29.20000 -22.94967 13.25000
v 30.00000 -30.00000 13.98923
v 30.00000 -24.01716 11.19938
v 29.20000 -24.01716 11.19938
v 30.00000 -30.00000 10.91911
v 30.00000 -24.90185 9.06353
v 29.20000 -24.90185 9.06353
v 30.00000 -30.00000 8.03848
v 30.00000 -25.59703 6.85870
v 29.20000 -25.59703 6.85870
v 30.00000 -30.00000 5.28981
v 30.00000 -26.09741 4.60168
v 29.20000 -26.09741 4.60168
v 30.00000 -30.00000 2.62466
v 30.00000 -26.39916 2.30963
v 29.20000 -26.39916 2.30963
v 30.00000 -30.00000 0.00000
v 30.00000 -26.50000 0.00000
v 29.20000 -26.50000 0.00000
v 30.00000 -30.00000 -2.62466
v 30.00000 -26.39916 -2.30963
v 29.20000 -26.39916 -2.30963
v 30.00000 -30.00000 -5.28981
v 30.00000 -26.09741 -4.60168
v 29.20000 -26.09741 -4.60168
v 30.00000 -30.00000 -8.03848
v 30.00000 -25.59703 -6.85870
v 29.20000 -25.59703 -6.85870
v 30.00000 -30.00000 -10.91911
v 30.00000 -24.90185 -9.06353
v 29.20000 -24.90185 -9.06353
v 30.00000 -30.00000 -13.98923
v 30.00000 -24.01716 -11.19938
v 29.20000 -24.01716 -11.19938
v 30.00000 -30.00000 -17.32051
v 30.00000 -22.94967 -13.25000
v 29.20000 -22.94967 -13.25000
v 30.00000 -30.00000 -21.00623
v 30.00000 -21.70753 -15.19978
v 29.20000 -21.70753 -15.19978
v 30.00000 -30.00000 -25.17299
v 30.00000 -20.30018 -17.03387
v 29.20000 -20.30018 -17.03387
v 30.00000 -18.73833 -18.73833
v 29.20000 -18.73833 -18.73833
v 30.00000 -17.03387 -20.30018
v 29.20000 -17.03387 -20.30018
v 30.00000 -15.19978 -21.70753
v 29.20000 -15.19978 -21.70753
v 30.00000 -13.25000 -22.94967
v 29.20000 -13.25000 -22.94967
v 30.00000 -11.19938 -24.01716
v 29.20000 -11.19938 -24.01716
v 30.00000 -9.06353 -24.90185
v 29.20000 -9.06353 -24.90185
v 30.00000 -6.85870 -25.59703
v 29.20000 -6.85870 -25.59703
v 30.00000 -4.60168 -26.09741
v 29.20000 -4.60168 -26.09741
v 30.00000 -2.30963 -26.39916
v 29.20000 -2.30963 -26.39916
v 30.00000 -0.00000 -26.50000
v 29.20000 -0.00000 -26.50000
v 30.00000 2.30963 -26.39916
v 29.20000 2.30963 -26.39916
v 30.00000 4.60168 -26.09741
v 29.20000 4.60168 -26.09741
v 30.00000 6.85870 -25.59703
v 29.20000 6.85870 -25.59703
v 30.00000 9.06353 -24.90185
v 29.20000 9.06353 -24.90185
v 30.00000 11.19938 -24.01716
v 29.20000 11.19938 -24.01716
v 30.00000 13.25000 -22.94967
v 29.20000 13.25000 -22.94967
v 30.00000 15.19978 -21.70753
v 29.20000 15.19978 -21.70753
v 30.00000 17.03387 -20.30018
v 29.20000 17.03387 -20.30018
v 30.00000 18.73833 -18.73833
v 29.20000 18.73833 -18.73833
v 30.00000 30.00000 -25.17299
v 30.00000 20.30018 -17.03387
v 29.20000 20.30018 -17.03387
v 30.00000 30.00000 -21.00623
v 30.00000 21.70753 -15.19978
v 29.20000 21.70753 -15.19978
v 30.00000 30.00000 -17.32051
v 30.00000 22.94967 -13.25000
v 29.20000 22.94967 -13.25000
v 30.00000 30.00000 -13.98923
v 30.00000 24.01716 -11.19938
v 29.20000 24.01716 -11.19938
v 30.00000 30.00000 -10.91911
v 30.00000 24.90185 -9.06353
v 29.20000 24.90185 -9.06353
v 30.00000 30.00000 -8.03848
v 30.00000 25.59703 -6.85870
v 29.20000 25.59703 -6.85870
v 30.00000 30.00000 -5.28981
v 30.00000 26.09741 -4.60168
v 29.20000 26.09741 -4.60168
v 30.00000 30.00000 -2.62466
v 30.00000 26.39916 -2.30963
v 29.20000 26.39916 -2.30963
v -30.00000 0.00000 26.50000
v -30.00000 2.30963 26.39916
v -29.20000 2.30963 26.39916
v -29.20000 0.00000 26.50000
v -29.20000 0.00000 0.00000
v -30.00000 4.60168 26.09741
v -29.20000 4.60168 26.09741
v -30.00000 6.85870 25.59703
v -29.20000 6.85870 25.59703
v -30.00000 9.06353 24.90185
v -29.20000 9.06353 24.90185
v -30.00000 11.19938 24.01716
v -29.20000 11.19938 24.01716
v -30.00000 13.25000 22.94967
v -29.20000 13.25000 22.94967
v -30.00000 15.19978 21.70753
v -29.20000 15.19978 21.70753
v -30.00000 17.03387 20.30018
v -29.20000 17.03387 20.30018
v -30.00000 18.73833 18.73833
v -29.20000 18.73833 18.73833
v -30.00000 30.00000 25.17299
v -30.00000 20.30018 17.03387
v -29.20000 20.30018 17.03387
v -30.00000 30.00000 21.00623
v -30.00000 21.70753 15.19978
v -29.20000 21.70753 15.19978
v -30.00000 30.00000 17.32051
v -30.00000 22.94967 13.25000
v -29.20000 22.94967 13.25000
v -30.00000 30.00000 13.98923
v -30.00000 24.01716 11.19938
v -29.20000 24.01716 11.19938
v -30.00000 30.00000 10.91911
v -30.00000 24.90185 9.06353
v -29.20000 24.90185 9.06353
v -30.00000 30.00000 8.03848
v -30.00000 25.59703 6.85870
v -29.20000 25.59703 6.85870
v -30.00000 30.00000 5.28981
v -30.00000 26.09741 4.60168
v -29.20000 26.09741 4.60168
v -30.00000 30.00000 2.62466
v -30.00000 26.39916 2.30963
v -29.20000 26.39916 2.30963
v -30.00000 30.00000 0.00000
v -30.00000 26.50000 0.00000
v -29.20000 26.50000 0.00000
v -30.00000 30.00000 -2.62466
v -30.00000 26.39916 -2.30963
v -29.20000 26.39916 -2.30963
v -30.00000 30.00000 -5.28981
v -30.00000 26.09741 -4.60168
v -29.20000 26.09741 -4.60168
v -30.00000 30.00000 -8.03848
v -30.00000 25.59703 -6.85870
v -29.20000 25.59703 -6.85870
v -30.00000 30.00000 -10.91911
v -30.00000 24.90185 -9.06353
v -29.20000 24.90185 -9.06353
v -30.00000 30.00000 -13.98923
v -30.00000 24.01716 -11.19938
v -29.20000 24.01716 -11.19938
v -30.00000 30.00000 -17.32051
v -30.00000 22.94967 -13.25000
v -29.20000 22.94967 -13.25000
v -30.00000 30.00000 -21.00623
v -30.00000 21.70753 -15.19978
v -29.20000 21.70753 -15.19978
v -30.00000 30.00000 -25.17299
v -30.00000 20.30018 -17.03387
v -29.20000 20.30018 -17.03387
v -30.00000 18.73833 -18.73833
v -29.20000 18.73833 -18.73833
v -30.00000 17.03387 -20.30018
v -29.20000 17.03387 -20.30018
v -30.00000 15.19978 -21.70753
v -29.20000 15.19978 -21.70753
v -30.00000 13.25000 -22.94967
v -29.20000 13.25000 -22.94967
v -30.00000 11.19938 -24.01716
v -29.20000 11.19938 -24.01716
v -30.00000 9.06353 -24.90185
v -29.20000 9.06353 -24.90185
v -30.00000 6.85870 -25.59703
v -29.20000 6.85870 -25.59703
v -30.00000 4.60168 -26.09741
v -29.20000 4.60168 -26.09741
v -30.00000 2.30963 -26.39916
v -29.20000 2.30963 -26.39916
v -30.00000 0.00000 -26.50000
v -29.20000 0.00000 -26.50000
v -30.00000 -2.30963 -26.39916
v -29.20000 -2.30963 -26.39916
v -30.00000 -4.60168 -26.09741
v -29.20000 -4.60168 -26.09741
v -30.00000 -6.85870 -25.59703
v -29.20000 -6.85870 -25.59703
v -30.00000 -9.06353 -24.90185
v -29.20000 -9.06353 -24.90185
v -30.00000 -11.19938 -24.01716
v -29.20000 -11.19938 -24.01716
v -30.00000 -13.25000 -22.94967
v -29.20000 -13.25000 -22.94967
v -30.00000 -15.19978 -21.70753
v -29.20000 -15.19978 -21.70753
v -30.00000 -17.03387 -20.30018
v -29.20000 -17.03387 -20.30018
v -30.00000 -18.73833 -18.73833
v -29.20000 -18.73833 -18.73833
v -30.00000 -30.00000 -25.17299
v -30.00000 -20.30018 -17.03387
v -29.20000 -20.30018 -17.03387
v -30.00000 -30.00000 -21.00623
v -30.00000 -21.70753 -15.19978
v -29.20000 -21.70753 -15.19978
v -30.00000 -30.00000 -17.32051
v -30.00000 -22.94967 -13.25000
v -29.20000 -22.94967 -13.25000
v -30.00000 -30.00000 -13.98923
v -30.00000 -24.01716 -11.19938
v -29.20000 -24.01716 -11.19938
v -30.00000 -30.00000 -10.91911
v -30.00000 -24.90185 -9.06353
v -29.20000 -24.90185 -9.06353
v -30.00000 -30.00000 -8.03848
v -30.00000 -25.59703 -6.85870
v -29.20000 -25.59703 -6.85870
v -30.00000 -30.00000 -5.28981
v -30.00000 -26.09741 -4.60168
v -29.20000 -26.09741 -4.60168
v -30.00000 -30.00000 -2.62466
v -30.00000 -26.39916 -2.30963
v -29.20000 -26.39916 -2.30963
v -30.00000 -30.00000 -0.00000
v -30.00000 -26.50000 -0.00000
v -29.20000 -26.50000 -0.00000
v -30.00000 -30.00000 2.62466
v -30.00000 -26.39916 2.30963
v -29.20000 -26.39916 2.30963
v -30.00000 -30.00000 5.28981
v -30.00000 -26.09741 4.60168
v -29.20000 -26.09741 4.60168
v -30.00000 -30.00000 8.03848
v -30.00000 -25.59703 6.85870
v -29.20000 -25.59703 6.85870
v -30.00000 -30.00000 10.91911
v -30.00000 -24.90185 9.06353
v -29.20000 -24.90185 9.06353
v -30.00000 -30.00000 13.98923
v -30.00000 -24.01716 11.19938
v -29.20000 -24.01716 11.19938
v -30.00000 -30.00000 17.32051
v -30.00000 -22.94967 13.25000
v -29.20000 -22.94967 13.25000
v -30.00000 -30.00000 21.00623
v -30.00000 -21.70753 15.19978
v -29.20000 -21.70753 15.19978
v -30.00000 -30.00000 25.17299
v -30.00000 -20.30018 17.03387
v -29.20000 -20.30018 17.03387
v -30.00000 -18.73833 18.73833
v -29.20000 -18.73833 18.73833
v -30.00000 -17.03387 20.30018
v -29.20000 -17.03387 20.30018
v -30.00000 -15.19978 21.70753
v -29.20000 -15.19978 21.70753
v -30.00000 -13.25000 22.94967
v -29.20000 -13.25000 22.94967
v -30.00000 -11.19938 24.01716
v -29.20000 -11.19938 24.01716
v -30.00000 -9.06353 24.90185
v -29.20000 -9.06353 24.90185
v -30.00000 -6.85870 25.59703
v -29.20000 -6.85870 25.59703
v -30.00000 -4.60168 26.09741
v -29.20000 -4.60168 26.09741
v -30.00000 -2.30963 26.39916
v -29.20000 -2.30963 26.39916
v 0.00000 30.00000 26.50000
v 2.30963 30.00000 26.39916
v 2.30963 29.20000 26.39916
v 0.00000 29.20000 26.50000
v 0.00000 29.20000 0.00000
v 4.60168 30.00000 26.09741
v 4.60168 29.20000 26.09741
v 6.85870 30.00000 25.59703
v 6.85870 29.20000 25.59703
v 9.06353 30.00000 24.90185
v 9.06353 29.20000 24.90185
v 11.19938 30.00000 24.01716
v 11.19938 29.20000 24.01716
v 13.25000 30.00000 22.94967
v 13.25000 29.20000 22.94967
v 15.19978 30.00000 21.70753
v 15.19978 29.20000 21.70753
v 17.03387 30.00000 20.30018
v 17.03387 29.20000 20.30018
v 18.73833 30.00000 18.73833
v 18.73833 29.20000 18.73833
v 20.30018 30.00000 17.03387
v 20.30018 29.20000 17.03387
v 21.70753 30.00000 15.19978
v 21.70753 29.20000 15.19978
v 22.94967 30.00000 13.25000
v 22.94967 29.20000 13.25000
v 24.01716 30.00000 11.19938
v 24.01716 29.20000 11.19938
v 24.90185 30.00000 9.06353
v 24.90185 29.20000 9.06353
v 25.59703 30.00000 6.85870
v 25.59703 29.20000 6.85870
v 26.09741 30.00000 4.60168
v 26.09741 29.20000 4.60168
v 26.39916 30.00000 2.30963
v 26.39916 29.20000 2.30963
v 26.50000 30.00000 0.00000
v 26.50000 29.20000 0.00000
v 26.39916 30.00000 -2.30963
v 26.39916 29.20000 -2.30963
v 26.09741 30.00000 -4.60168
v 26.09741 29.20000 -4.60168
v 25.59703 30.00000 -6.85870
v 25.59703 29.20000 -6.85870
v 24.90185 30.00000 -9.06353
v 24.90185 29.20000 -9.06353
v 24.01716 30.00000 -11.19938
v 24.01716 29.20000 -11.19938
v 22.94967 30.00000 -13.25000
v 22.94967 29.20000 -13.25000
v 21.70753 30.00000 -15.19978
v 21.70753 29.20000 -15.19978
v 20.30018 30.00000 -17.03387
v 20.30018 29.20000 -17.03387
v 18.73833 30.00000 -18.73833
v 18.73833 29.20000 -18.73833
v 17.03387 30.00000 -20.30018
v 17.03387 29.20000 -20.30018
v 15.19978 30.00000 -21.70753
v 15.19978 29.20000 -21.70753
v 13.25000 30.00000 -22.94967
v 13.25000 29.20000 -22.94967
v 11.19938 30.00000 -24.01716
v 11.19938 29.20000 -24.01716
v 9.06353 30.00000 -24.90185
v 9.06353 29.20000 -24.90185
v 6.85870 30.00000 -25.59703
v 6.85870 29.20000 -25.59703
v 4.60168 30.00000 -26.09741
v 4.60168 29.20000 -26.09741
v 2.30963 30.00000 -26.39916
v 2.30963 29.20000 -26.39916
v 0.00000 30.00000 -26.50000
v 0.00000 29.20000 -26.50000
v -2.30963 30.00000 -26.39916
v -2.30963 29.20000 -26.39916
v -4.60168 30.00000 -26.09741
v -4.60168 29.20000 -26.09741
v -6.85870 30.00000 -25.59703
v -6.85870 29.20000 -25.59703
v -9.06353 30.00000 -24.90185
v -9.06353 29.20000 -24.90185
v -11.19938 30.00000 -24.01716
v -11.19938 29.20000 -24.01716
v -13.25000 30.00000 -22.94967
v -13.25000 29.20000 -22.94967
v -15.19978 30.00000 -21.70753
v -15.19978 29.20000 -21.70753
v -17.03387 30.00000 -20.30018
v -17.03387 29.20000 -20.30018
v -18.73833 30.00000 -18.73833
v -18.73833 29.20000 -18.73833
v -20.30018 30.00000 -17.03387
v -20.30018 29.20000 -17.03387
v -21.70753 30.00000 -15.19978
v -21.70753 29.20000 -15.19978
v -22.94967 30.00000 -13.25000
v -22.94967 29.20000 -13.25000
v -24.01716 30.00000 -11.19938
v -24.01716 29.20000 -11.19938
v -24.90185 30.00000 -9.06353
v -24.90185 29.20000 -9.06353
v -25.59703 30.00000 -6.85870
v -25.59703 29.20000 -6.85870
v -26.09741 30.00000 -4.60168
v -26.09741 29.20000 -4.60168
v -26.39916 30.00000 -2.30963
v -26.39916 29.20000 -2.30963
v -26.50000 30.00000 -0.00000
v -26.50000 29.20000 -0.00000
v -26.39916 30.00000 2.30963
v -26.39916 29.20000 2.30963
v -26.09741 30.00000 4.60168
v -26.09741 29.20000 4.60168
v -25.59703 30.00000 6.85870
v -25.59703 29.20000 6.85870
v -24.90185 30.00000 9.06353
v -24.90185 29.20000 9.06353
v -24.01716 30.00000 11.19938
v -24.01716 29.20000 11.19938
v -22.94967 30.00000 13.25000
v -22.94967 29.20000 13.25000
v -21.70753 30.00000 15.19978
v -21.70753 29.20000 15.19978
v -20.30018 30.00000 17.03387
v -20.30018 29.20000 17.03387
v -18.73833 30.00000 18.73833
v -18.73833 29.20000 18.73833
v -17.03387 30.00000 20.30018
v -17.03387 29.20000 20.30018
v -15.19978 30.00000 21.70753
v -15.19978 29.20000 21.70753
v -13.25000 30.00000 22.94967
v -13.25000 29.20000 22.94967
v -11.19938 30.00000 24.01716
v -11.19938 29.20000 24.01716
v -9.06353 30.00000 24.90185
v -9.06353 29.20000 24.90185
v -6.85870 30.00000 25.59703
v -6.85870 29.20000 25.59703
v -4.60168 30.00000 26.09741
v -4.60168 29.20000 26.09741
v -2.30963 30.00000 26.39916
v -2.30963 29.20000 26.39916
v 26.50000 -30.00000 0.00000
v 26.39916 -30.00000 2.30963
v 26.39916 -29.20000 2.30963
v 26.50000 -29.20000 0.00000
v 0.00000 -29.20000 0.00000
v 26.09741 -30.00000 4.60168
v 26.09741 -29.20000 4.60168
v 25.59703 -30.00000 6.85870
v 25.59703 -29.20000 6.85870
v 24.90185 -30.00000 9.06353
v 24.90185 -29.20000 9.06353
v 24.01716 -30.00000 11.19938
v 24.01716 -29.20000 11.19938
v 22.94967 -30.00000 13.25000
v 22.94967 -29.20000 13.25000
v 21.70753 -30.00000 15.19978
v 21.70753 -29.20000 15.19978
v 20.30018 -30.00000 17.03387
v 20.30018 -29.20000 17.03387
v 18.73833 -30.00000 18.73833
v 18.73833 -29.20000 18.73833
v 17.03387 -30.00000 20.30018
v 17.03387 -29.20000 20.30018
v 15.19978 -30.00000 21.70753
v 15.19978 -29.20000 21.70753
v 13.25000 -30.00000 22.94967
v 13.25000 -29.20000 22.94967
v 11.19938 -30.00000 24.01716
v 11.19938 -29.20000 24.01716
v 9.06353 -30.00000 24.90185
v 9.06353 -29.20000 24.90185
v 6.85870 -30.00000 25.59703
v 6.85870 -29.20000 25.59703
v 4.60168 -30.00000 26.09741
v 4.60168 -29.20000 26.09741
v 2.30963 -30.00000 26.39916
v 2.30963 -29.20000 26.39916
v 0.00000 -30.00000 26.50000
v 0.00000 -29.20000 26.50000
v -2.30963 -30.00000 26.39916
v -2.30963 -29.20000 26.39916
v -4.60168 -30.00000 26.09741
v -4.60168 -29.20000 26.09741
v -6.85870 -30.00000 25.59703
v -6.85870 -29.20000 25.59703
v -9.06353 -30.00000 24.90185
v -9.06353 -29.20000 24.90185
v -11.19938 -30.00000 24.01716
v -11.19938 -29.20000 24.01716
v -13.25000 -30.00000 22.94967
v -13.25000 -29.20000 22.94967
v -15.19978 -30.00000 21.70753
v -15.19978 -29.20000 21.70753
v -17.03387 -30.00000 20.30018
v -17.03387 -29.20000 20.30018
v -18.73833 -30.00000 18.73833
v -18.73833 -29.20000 18.73833
v -20.30018 -30.00000 17.03387
v -20.30018 -29.20000 17.03387
v -21.70753 -30.00000 15.19978
v -21.70753 -29.20000 15.19978
v -22.94967 -30.00000 13.25000
v -22.94967 -29.20000 13.25000
v -24.01716 -30.00000 11.19938
v -24.01716 -29.20000 11.19938
v -24.90185 -30.00000 9.06353
v -24.90185 -29.20000 9.06353
v -25.59703 -30.00000 6.85870
v -25.59703 -29.20000 6.85870
v -26.09741 -30.00000 4.60168
v -26.09741 -29.20000 4.60168
v -26.39916 -30.00000 2.30963
v -26.39916 -29.20000 2.30963
v -26.50000 -30.00000 0.00000
v -26.50000 -29.20000 0.00000
v -26.39916 -30.00000 -2.30963
v -26.39916 -29.20000 -2.30963
v -26.09741 -30.00000 -4.60168
v -26.09741 -29.20000 -4.60168
v -25.59703 -30.00000 -6.85870
v -25.59703 -29.20000 -6.85870
v -24.90185 -30.00000 -9.06353
v -24.90185 -29.20000 -9.06353
v -24.01716 -30.00000 -11.19938
v -24.01716 -29.20000 -11.19938
v -22.94967 -30.00000 -13.25000
v -22.94967 -29.20000 -13.25000
v -21.70753 -30.00000 -15.19978
v -21.70753 -29.20000 -15.19978
v -20.30018 -30.00000 -17.03387
v -20.30018 -29.20000 -17.03387
v -18.73833 -30.00000 -18.73833
v -18.73833 -29.20000 -18.73833
v -17.03387 -30.00000 -20.30018
v -17.03387 -29.20000 -20.30018
v -15.19978 -30.00000 -21.70753
v -15.19978 -29.20000 -21.70753
v -13.25000 -30.00000 -22.94967
v -13.25000 -29.20000 -22.94967
v -11.19938 -30.00000 -24.01716
v -11.19938 -29.20000 -24.01716
v -9.06353 -30.00000 -24.90185
v -9.06353 -29.20000 -24.90185
v -6.85870 -30.00000 -25.59703
v -6.85870 -29.20000 -25.59703
v -4.60168 -30.00000 -26.09741
v -4.60168 -29.20000 -26.09741
v -2.30963 -30.00000 -26.39916
v -2.30963 -29.20000 -26.39916
v -0.00000 -30.00000 -26.50000
v -0.00000 -29.20000 -26.50000
v 2.30963 -30.00000 -26.39916
v 2.30963 -29.20000 -26.39916
v 4.60168 -30.00000 -26.09741
v 4.60168 -29.20000 -26.09741
v 6.85870 -30.00000 -25.59703
v 6.85870 -29.20000 -25.59703
v 9.06353 -30.00000 -24.90185
v 9.06353 -29.20000 -24.90185
v 11.19938 -30.00000 -24.01716
v 11.19938 -29.20000 -24.01716
v 13.25000 -30.00000 -22.94967
v 13.25000 -29.20000 -22.94967
v 15.19978 -30.00000 -21.70753
v 15.19978 -29.20000 -21.70753
v 17.03387 -30.00000 -20.30018
v 17.03387 -29.20000 -20.30018
v 18.73833 -30.00000 -18.73833
v 18.73833 -29.20000 -18.73833
v 20.30018 -30.00000 -17.03387
v 20.30018 -29.20000 -17.03387
v 21.70753 -30.00000 -15.19978
v 21.70753 -29.20000 -15.19978
v 22.94967 -30.00000 -13.25000
v 22.94967 -29.20000 -13.25000
v 24.01716 -30.00000 -11.19938
v 24.01716 -29.20000 -11.19938
v 24.90185 -30.00000 -9.06353
v 24.90185 -29.20000 -9.06353
v 25.59703 -30.00000 -6.85870
v 25.59703 -29.20000 -6.85870
v 26.09741 -30.00000 -4.60168
v 26.09741 -29.20000 -4.60168
v 26.39916 -30.00000 -2.30963
v 26.39916 -29.20000 -2.30963
f 1 2 3
f 1 3 4
f 1 4 5
f 1 5 6
f 7 6 5
f 4 3 8
f 4 8 9
f 4 9 10
f 4 10 5
f 7 5 10
f 9 8 11
f 9 11 12
f 9 12 13
f 9 13 10
f 7 10 13
f 12 11 14
f 12 14 15
f 12 15 16
f 12 16 13
f 7 13 16
f 15 14 17
f 15 17 18
f 15 18 19
f 15 19 16
f 7 16 19
f 18 17 20
f 18 20 21
f 18 21 22
f 18 22 19
f 7 19 22
f 21 20 23
f 21 23 24
f 21 24 25
f 21 25 22
f 7 22 25
f 24 23 26
f 24 26 27
f 24 27 28
f 24 28 25
f 7 25 28
f 27 26 29
f 27 29 30
f 27 30 31
f 27 31 28
f 7 28 31
f 30 29 32
f 30 32 33
f 30 33 34
f 30 34 31
f 7 31 34
f 33 32 35
f 33 35 36
f 33 36 37
f 33 37 34
f 7 34 37
f 36 35 38
f 36 38 39
f 36 39 40
f 36 40 37
f 7 37 40
f 39 38 41
f 39 41 42
f 39 42 43
f 39 43 40
f 7 40 43
f 42 41 44
f 42 44 45
f 42 45 46
f 42 46 43
f 7 43 46
f 45 44 47
f 45 47 48
f 45 48 49
f 45 49 46
f 7 46 49
f 48 47 50
f 48 50 51
f 48 51 52
f 48 52 49
f 7 49 52
f 51 50 53
f 51 53 54
f 51 54 55
f 51 55 52
f 7 52 55
f 54 53 56
f 54 56 57
f 54 57 58
f 54 58 55
f 7 55 58
f 57 56 59
f 57 59 60
f 57 60 61
f 57 61 58
f 7 58 61
f 60 59 62
f 60 62 63
f 60 63 64
f 60 64 61
f 7 61 64
f 63 62 65
f 63 65 66
f 63 66 67
f 63 67 64
f 7 64 67
f 66 65 68
f 66 68 69
f 66 69 70
f 66 70 67
f 7 67 70
f 69 68 71
f 69 71 72
f 69 72 73
f 69 73 70
f 7 70 73
f 72 71 74
f 72 74 75
f 72 75 76
f 72 76 73
f 7 73 76
f 75 74 77
f 75 77 78
f 75 78 79
f 75 79 76
f 7 76 79
f 78 77 80
f 78 80 81
f 78 81 82
f 78 82 79
f 7 79 82
f 81 80 83
f 81 83 84
f 81 84 85
f 81 85 82
f 7 82 85
f 84 83 86
f 84 86 87
f 84 87 88
f 84 88 85
f 7 85 88
f 87 86 89
f 87 89 90
f 87 90 91
f 87 91 88
f 7 88 91
f 90 89 92
f 90 92 93
f 90 93 94
f 90 94 91
f 7 91 94
f 93 92 95
f 93 95 96
f 93 96 97
f 93 97 94
f 7 94 97
f 96 95 98
f 96 98 99
f 96 99 100
f 96 100 97
f 7 97 100
f 99 98 101
f 99 101 102
f 99 102 103
f 99 103 100
f 7 100 103
f 102 101 104
f 102 104 105
f 102 105 106
f 102 106 103
f 7 103 106
f 105 104 107
f 105 107 108
f 105 108 109
f 105 109 106
f 7 106 109
f 108 107 110
f 108 110 111
f 108 111 112
f 108 112 109
f 7 109 112
f 111 110 113
f 111 113 114
f 111 114 115
f 111 115 112
f 7 112 115
f 114 113 116
f 114 116 117
f 114 117 118
f 114 118 115
f 7 115 118
f 117 116 119
f 117 119 120
f 117 120 121
f 117 121 118
f 7 118 121
f 120 119 122
f 120 122 123
f 120 123 124
f 120 124 121
f 7 121 124
f 123 122 125
f 123 125 126
f 123 126 127
f 123 127 124
f 7 124 127
f 126 125 128
f 126 128 129
f 126 129 130
f 126 130 127
f 7 127 130
f 129 128 131
f 129 131 132
f 129 132 133
f 129 133 130
f 7 130 133
f 132 131 134
f 132 134 135
f 132 135 136
f 132 136 133
f 7 133 136
f 135 134 137
f 135 137 138
f 135 138 139
f 135 139 136
f 7 136 139
f 138 137 140
f 138 140 141
f 138 141 142
f 138 142 139
f 7 139 142
f 141 140 143
f 141 143 144
f 141 144 145
f 141 145 142
f 7 142 145
f 144 143 146
f 144 146 147
f 144 147 148
f 144 148 145
f 7 145 148
f 147 146 149
f 147 149 150
f 147 150 151
f 147 151 148
f 7 148 151
f 150 149 152
f 150 152 153
f 150 153 154
f 150 154 151
f 7 151 154
f 153 152 155
f 153 155 156
f 153 156 157
f 153 157 154
f 7 154 157
f 156 155 158
f 156 158 159
f 156 159 160
f 156 160 157
f 7 157 160
f 159 158 161
f 159 161 162
f 159 162 163
f 159 163 160
f 7 160 163
f 162 161 164
f 162 164 165
f 162 165 166
f 162 166 163
f 7 163 166
f 165 164 167
f 165 167 168
f 165 168 169
f 165 169 166
f 7 166 169
f 168 167 170
f 168 170 171
f 168 171 172
f 168 172 169
f 7 169 172
f 171 170 173
f 171 173 174
f 171 174 175
f 171 175 172
f 7 172 175
f 174 173 176
f 174 176 177
f 174 177 178
f 174 178 175
f 7 175 178
f 177 176 179
f 177 179 180
f 177 180 181
f 177 181 178
f 7 178 181
f 180 179 182
f 180 182 183
f 180 183 184
f 180 184 181
f 7 181 184
f 183 182 185
f 183 185 186
f 183 186 187
f 183 187 184
f 7 184 187
f 186 185 188
f 186 188 189
f 186 189 190
f 186 190 187
f 7 187 190
f 189 188 191
f 189 191 192
f 189 192 193
f 189 193 190
f 7 190 193
f 192 191 194
f 192 194 195
f 192 195 196
f 192 196 193
f 7 193 196
f 195 194 197
f 195 197 198
f 195 198 199
f 195 199 196
f 7 196 199
f 198 197 200
f 198 200 201
f 198 201 202
f 198 202 199
f 7 199 202
f 201 200 203
f 201 203 204
f 201 204 205
f 201 205 202
f 7 202 205
f 204 203 206
f 204 206 207
f 204 207 208
f 204 208 205
f 7 205 208
f 207 206 209
f 207 209 210
f 207 210 211
f 207 211 208
f 7 208 211
f 210 209 212
f 210 212 213
f 210 213 214
f 210 214 211
f 7 211 214
f 213 212 215
f 213 215 216
f 213 216 217
f 213 217 214
f 7 214 217
f 216 215 2
f 216 2 1
f 216 1 6
f 216 6 217
f 7 217 6
f 218 219 220
f 218 220 221
f 218 221 222
f 218 222 223
f 224 223 222
f 221 220 225
f 221 225 226
f 221 226 227
f 221 227 222
f 224 222 227
f 226 225 228
f 226 228 229
f 226 229 230
f 226 230 227
f 224 227 230
f 229 228 231
f 229 231 232
f 229 232 233
f 229 233 230
f 224 230 233
f 232 231 234
f 232 234 235
f 232 235 236
f 232 236 233
f 224 233 236
f 235 234 237
f 235 237 238
f 235 238 239
f 235 239 236
f 224 236 239
f 238 237 240
f 238 240 241
f 238 241 242
f 238 242 239
f 224 239 242
f 241 240 243
f 241 243 244
f 241 244 245
f 241 245 242
f 224 242 245
f 244 243 246
f 244 246 247
f 244 247 248
f 244 248 245
f 224 245 248
f 247 246 249
f 247 249 250
f 247 250 251
f 247 251 248
f 224 248 251
f 250 249 252
f 250 252 253
f 250 253 254
f 250 254 251
f 224 251 254
f 253 252 255
f 253 255 256
f 253 256 257
f 253 257 254
f 224 254 257
f 256 255 258
f 256 258 259
f 256 259 260
f 256 260 257
f 224 257 260
f 259 258 261
f 259 261 262
f 259 262 263
f 259 263 260
f 224 260 263
f 262 261 264
f 262 264 265
f 262 265 266
f 262 266 263
f 224 263 266
f 265 264 267
f 265 267 268
f 265 268 269
f 265 269 266
f 224 266 269
f 268 267 270
f 268 270 271
f 268 271 272
f 268 272 269
f 224 269 272
f 271 270 273
f 271 273 274
f 271 274 275
f 271 275 272
f 224 272 275
f 274 273 276
f 274 276 277
f 274 277 278
f 274 278 275
f 224 275 278
f 277 276 279
f 277 279 280
f 277 280 281
f 277 281 278
f 224 278 281
f 280 279 282
f 280 282 283
f 280 283 284
f 280 284 281
f 224 281 284
f 283 282 285
f 283 285 286
f 283 286 287
f 283 287 284
f 224 284 287
f 286 285 288
f 286 288 289
f 286 289 290
f 286 290 287
f 224 287 290
f 289 288 291
f 289 291 292
f 289 292 293
f 289 293 290
f 224 290 293
f 292 291 294
f 292 294 295
f 292 295 296
f 292 296 293
f 224 293 296
f 295 294 297
f 295 297 298
f 295 298 299
f 295 299 296
f 224 296 299
f 298 297 300
f 298 300 301
f 298 301 302
f 298 302 299
f 224 299 302
f 301 300 303
f 301 303 304
f 301 304 305
f 301 305 302
f 224 302 305
f 304 303 306
f 304 306 307
f 304 307 308
f 304 308 305
f 224 305 308
f 307 306 309
f 307 309 310
f 307 310 311
f 307 311 308
f 224 308 311
f 310 309 312
f 310 312 313
f 310 313 314
f 310 314 311
f 224 311 314
f 313 312 315
f 313 315 316
f 313 316 317
f 313 317 314
f 224 314 317
f 316 315 318
f 316 318 319
f 316 319 320
f 316 320 317
f 224 317 320
f 319 318 321
f 319 321 322
f 319 322 323
f 319 323 320
f 224 320 323
f 322 321 324
f 322 324 325
f 322 325 326
f 322 326 323
f 224 323 326
f 325 324 327
f 325 327 328
f 325 328 329
f 325 329 326
f 224 326 329
f 328 327 330
f 328 330 331
f 328 331 332
f 328 332 329
f 224 329 332
f 331 330 333
f 331 333 334
f 331 334 335
f 331 335 332
f 224 332 335
f 334 333 336
f 334 336 337
f 334 337 338
f 334 338 335
f 224 335 338
f 337 336 339
f 337 339 340
f 337 340 341
f 337 341 338
f 224 338 341
f 340 339 342
f 340 342 343
f 340 343 344
f 340 344 341
f 224 341 344
f 343 342 345
f 343 345 346
f 343 346 347
f 343 347 344
f 224 344 347
f 346 345 348
f 346 348 349
f 346 349 350
f 346 350 347
f 224 347 350
f 349 348 351
f 349 351 352
f 349 352 353
f 349 353 350
f 224 350 353
f 352 351 354
f 352 354 355
f 352 355 356
f 352 356 353
f 224 353 356
f 355 354 357
f 355 357 358
f 355 358 359
f 355 359 356
f 224 356 359
f 358 357 360
f 358 360 361
f 358 361 362
f 358 362 359
f 224 359 362
f 361 360 363
f 361 363 364
f 361 364 365
f 361 365 362
f 224 362 365
f 364 363 366
f 364 366 367
f 364 367 368
f 364 368 365
f 224 365 368
f 367 366 369
f 367 369 370
f 367 370 371
f 367 371 368
f 224 368 371
f 370 369 372
f 370 372 373
f 370 373 374
f 370 374 371
f 224 371 374
f 373 372 375
f 373 375 376
f 373 376 377
f 373 377 374
f 224 374 377
f 376 375 378
f 376 378 379
f 376 379 380
f 376 380 377
f 224 377 380
f 379 378 381
f 379 381 382
f 379 382 383
f 379 383 380
f 224 380 383
f 382 381 384
f 382 384 385
f 382 385 386
f 382 386 383
f 224 383 386
f 385 384 387
f 385 387 388
f 385 388 389
f 385 389 386
f 224 386 389
f 388 387 390
f 388 390 391
f 388 391 392
f 388 392 389
f 224 389 392
f 391 390 393
f 391 393 394
f 391 394 395
f 391 395 392
f 224 392 395
f 394 393 396
f 394 396 397
f 394 397 398
f 394 398 395
f 224 395 398
f 397 396 399
f 397 399 400
f 397 400 401
f 397 401 398
f 224 398 401
f 400 399 402
f 400 402 403
f 400 403 404
f 400 404 401
f 224 401 404
f 403 402 405
f 403 405 406
f 403 406 407
f 403 407 404
f 224 404 407
f 406 405 408
f 406 408 409
f 406 409 410
f 406 410 407
f 224 407 410
f 409 408 411
f 409 411 412
f 409 412 413
f 409 413 410
f 224 410 413
f 412 411 414
f 412 414 415
f 412 415 416
f 412 416 413
f 224 413 416
f 415 414 417
f 415 417 418
f 415 418 419
f 415 419 416
f 224 416 419
f 418 417 420
f 418 420 421
f 418 421 422
f 418 422 419
f 224 419 422
f 421 420 423
f 421 423 424
f 421 424 425
f 421 425 422
f 224 422 425
f 424 423 426
f 424 426 427
f 424 427 428
f 424 428 425
f 224 425 428
f 427 426 429
f 427 429 430
f 427 430 431
f 427 431 428
f 224 428 431
f 430 429 432
f 430 432 433
f 430 433 434
f 430 434 431
f 224 431 434
f 433 432 219
f 433 219 218
f 433 218 223
f 433 223 434
f 224 434 223
f 435 436 437
f 435 437 438
f 435 438 439
f 435 439 440
f 441 440 439
f 438 437 442
f 438 442 443
f 438 443 444
f 438 444 439
f 441 439 444
f 443 442 445
f 443 445 446
f 443 446 447
f 443 447 444
f 441 444 447
f 446 445 448
f 446 448 449
f 446 449 450
f 446 450 447
f 441 447 450
f 449 448 451
f 449 451 452
f 449 452 453
f 449 453 450
f 441 450 453
f 452 451 454
f 452 454 455
f 452 455 456
f 452 456 453
f 441 453 456
f 455 454 457
f 455 457 458
f 455 458 459
f 455 459 456
f 441 456 459
f 458 457 460
f 458 460 461
f 458 461 462
f 458 462 459
f 441 459 462
f 461 460 29
f 461 29 463
f 461 463 464
f 461 464 462
f 441 462 464
f 463 29 26
f 463 26 465
f 463 465 466
f 463 466 464
f 441 464 466
f 465 26 23
f 465 23 467
f 465 467 468
f 465 468 466
f 441 466 468
f 467 23 20
f 467 20 469
f 467 469 470
f 467 470 468
f 441 468 470
f 469 20 17
f 469 17 471
f 469 471 472
f 469 472 470
f 441 470 472
f 471 17 14
f 471 14 473
f 471 473 474
f 471 474 472
f 441 472 474
f 473 14 11
f 473 11 475
f 473 475 476
f 473 476 474
f 441 474 476
f 475 11 8
f 475 8 477
f 475 477 478
f 475 478 476
f 441 476 478
f 477 8 3
f 477 3 479
f 477 479 480
f 477 480 478
f 441 478 480
f 479 3 2
f 479 2 481
f 479 481 482
f 479 482 480
f 441 480 482
f 481 2 215
f 481 215 483
f 481 483 484
f 481 484 482
f 441 482 484
f 483 215 212
f 483 212 485
f 483 485 486
f 483 486 484
f 441 484 486
f 485 212 209
f 485 209 487
f 485 487 488
f 485 488 486
f 441 486 488
f 487 209 206
f 487 206 489
f 487 489 490
f 487 490 488
f 441 488 490
f 489 206 203
f 489 203 491
f 489 491 492
f 489 492 490
f 441 490 492
f 491 203 200
f 491 200 493
f 491 493 494
f 491 494 492
f 441 492 494
f 493 200 197
f 493 197 495
f 493 495 496
f 493 496 494
f 441 494 496
f 495 197 194
f 495 194 497
f 495 497 498
f 495 498 496
f 441 496 498
f 497 194 191
f 497 191 499
f 497 499 500
f 497 500 498
f 441 498 500
f 499 191 501
f 499 501 502
f 499 502 503
f 499 503 500
f 441 500 503
f 502 501 504
f 502 504 505
f 502 505 506
f 502 506 503
f 441 503 506
f 505 504 507
f 505 507 508
f 505 508 509
f 505 509 506
f 441 506 509
f 508 507 510
f 508 510 511
f 508 511 512
f 508 512 509
f 441 509 512
f 511 510 513
f 511 513 514
f 511 514 515
f 511 515 512
f 441 512 515
f 514 513 516
f 514 516 517
f 514 517 518
f 514 518 515
f 441 515 518
f 517 516 519
f 517 519 520
f 517 520 521
f 517 521 518
f 441 518 521
f 520 519 522
f 520 522 523
f 520 523 524
f 520 524 521
f 441 521 524
f 523 522 525
f 523 525 526
f 523 526 527
f 523 527 524
f 441 524 527
f 526 525 528
f 526 528 529
f 526 529 530
f 526 530 527
f 441 527 530
f 529 528 531
f 529 531 532
f 529 532 533
f 529 533 530
f 441 530 533
f 532 531 534
f 532 534 535
f 532 535 536
f 532 536 533
f 441 533 536
f 535 534 537
f 535 537 538
f 535 538 539
f 535 539 536
f 441 536 539
f 538 537 540
f 538 540 541
f 538 541 542
f 538 542 539
f 441 539 542
f 541 540 543
f 541 543 544
f 541 544 545
f 541 545 542
f 441 542 545
f 544 543 546
f 544 546 547
f 544 547 548
f 544 548 545
f 441 545 548
f 547 546 549
f 547 549 550
f 547 550 551
f 547 551 548
f 441 548 551
f 550 549 300
f 550 300 552
f 550 552 553
f 550 553 551
f 441 551 553
f 552 300 297
f 552 297 554
f 552 554 555
f 552 555 553
f 441 553 555
f 554 297 294
f 554 294 556
f 554 556 557
f 554 557 555
f 441 555 557
f 556 294 291
f 556 291 558
f 556 558 559
f 556 559 557
f 441 557 559
f 558 291 288
f 558 288 560
f 558 560 561
f 558 561 559
f 441 559 561
f 560 288 285
f 560 285 562
f 560 562 563
f 560 563 561
f 441 561 563
f 562 285 282
f 562 282 564
f 562 564 565
f 562 565 563
f 441 563 565
f 564 282 279
f 564 279 566
f 564 566 567
f 564 567 565
f 441 565 567
f 566 279 276
f 566 276 568
f 566 568 569
f 566 569 567
f 441 567 569
f 568 276 273
f 568 273 570
f 568 570 571
f 568 571 569
f 441 569 571
f 570 273 270
f 570 270 572
f 570 572 573
f 570 573 571
f 441 571 573
f 572 270 267
f 572 267 574
f 572 574 575
f 572 575 573
f 441 573 575
f 574 267 264
f 574 264 576
f 574 576 577
f 574 577 575
f 441 575 577
f 576 264 261
f 576 261 578
f 576 578 579
f 576 579 577
f 441 577 579
f 578 261 258
f 578 258 580
f 578 580 581
f 578 581 579
f 441 579 581
f 580 258 255
f 580 255 582
f 580 582 583
f 580 583 581
f 441 581 583
f 582 255 252
f 582 252 584
f 582 584 585
f 582 585 583
f 441 583 585
f 584 252 249
f 584 249 586
f 584 586 587
f 584 587 585
f 441 585 587
f 586 249 246
f 586 246 588
f 586 588 589
f 586 589 587
f 441 587 589
f 588 246 590
f 588 590 591
f 588 591 592
f 588 592 589
f 441 589 592
f 591 590 593
f 591 593 594
f 591 594 595
f 591 595 592
f 441 592 595
f 594 593 596
f 594 596 597
f 594 597 598
f 594 598 595
f 441 595 598
f 597 596 599
f 597 599 600
f 597 600 601
f 597 601 598
f 441 598 601
f 600 599 602
f 600 602 603
f 600 603 604
f 600 604 601
f 441 601 604
f 603 602 605
f 603 605 606
f 603 606 607
f 603 607 604
f 441 604 607
f 606 605 608
f 606 608 609
f 606 609 610
f 606 610 607
f 441 607 610
f 609 608 611
f 609 611 612
f 609 612 613
f 609 613 610
f 441 610 613
f 612 611 436
f 612 436 435
f 612 435 440
f 612 440 613
f 441 613 440
f 614 110 107
f 614 107 615
f 614 615 616
f 614 616 617
f 618 617 616
f 615 107 104
f 615 104 619
f 615 619 620
f 615 620 616
f 618 616 620
f 619 104 101
f 619 101 621
f 619 621 622
f 619 622 620
f 618 620 622
f 621 101 98
f 621 98 623
f 621 623 624
f 621 624 622
f 618 622 624
f 623 98 95
f 623 95 625
f 623 625 626
f 623 626 624
f 618 624 626
f 625 95 92
f 625 92 627
f 625 627 628
f 625 628 626
f 618 626 628
f 627 92 89
f 627 89 629
f 627 629 630
f 627 630 628
f 618 628 630
f 629 89 86
f 629 86 631
f 629 631 632
f 629 632 630
f 618 630 632
f 631 86 83
f 631 83 633
f 631 633 634
f 631 634 632
f 618 632 634
f 633 83 635
f 633 635 636
f 633 636 637
f 633 637 634
f 618 634 637
f 636 635 638
f 636 638 639
f 636 639 640
f 636 640 637
f 618 637 640
f 639 638 641
f 639 641 642
f 639 642 643
f 639 643 640
f 618 640 643
f 642 641 644
f 642 644 645
f 642 645 646
f 642 646 643
f 618 643 646
f 645 644 647
f 645 647 648
f 645 648 649
f 645 649 646
f 618 646 649
f 648 647 650
f 648 650 651
f 648 651 652
f 648 652 649
f 618 649 652
f 651 650 653
f 651 653 654
f 651 654 655
f 651 655 652
f 618 652 655
f 654 653 656
f 654 656 657
f 654 657 658
f 654 658 655
f 618 655 658
f 657 656 659
f 657 659 660
f 657 660 661
f 657 661 658
f 618 658 661
f 660 659 662
f 660 662 663
f 660 663 664
f 660 664 661
f 618 661 664
f 663 662 665
f 663 665 666
f 663 666 667
f 663 667 664
f 618 664 667
f 666 665 668
f 666 668 669
f 666 669 670
f 666 670 667
f 618 667 670
f 669 668 671
f 669 671 672
f 669 672 673
f 669 673 670
f 618 670 673
f 672 671 674
f 672 674 675
f 672 675 676
f 672 676 673
f 618 673 676
f 675 674 677
f 675 677 678
f 675 678 679
f 675 679 676
f 618 676 679
f 678 677 680
f 678 680 681
f 678 681 682
f 678 682 679
f 618 679 682
f 681 680 683
f 681 683 684
f 681 684 685
f 681 685 682
f 618 682 685
f 684 683 408
f 684 408 686
f 684 686 687
f 684 687 685
f 618 685 687
f 686 408 405
f 686 405 688
f 686 688 689
f 686 689 687
f 618 687 689
f 688 405 402
f 688 402 690
f 688 690 691
f 688 691 689
f 618 689 691
f 690 402 399
f 690 399 692
f 690 692 693
f 690 693 691
f 618 691 693
f 692 399 396
f 692 396 694
f 692 694 695
f 692 695 693
f 618 693 695
f 694 396 393
f 694 393 696
f 694 696 697
f 694 697 695
f 618 695 697
f 696 393 390
f 696 390 698
f 696 698 699
f 696 699 697
f 618 697 699
f 698 390 387
f 698 387 700
f 698 700 701
f 698 701 699
f 618 699 701
f 700 387 384
f 700 384 702
f 700 702 703
f 700 703 701
f 618 701 703
f 702 384 381
f 702 381 704
f 702 704 705
f 702 705 703
f 618 703 705
f 704 381 378
f 704 378 706
f 704 706 707
f 704 707 705
f 618 705 707
f 706 378 375
f 706 375 708
f 706 708 709
f 706 709 707
f 618 707 709
f 708 375 372
f 708 372 710
f 708 710 711
f 708 711 709
f 618 709 711
f 710 372 369
f 710 369 712
f 710 712 713
f 710 713 711
f 618 711 713
f 712 369 366
f 712 366 714
f 712 714 715
f 712 715 713
f 618 713 715
f 714 366 363
f 714 363 716
f 714 716 717
f 714 717 715
f 618 715 717
f 716 363 360
f 716 360 718
f 716 718 719
f 716 719 717
f 618 717 719
f 718 360 357
f 718 357 720
f 718 720 721
f 718 721 719
f 618 719 721
f 720 357 354
f 720 354 722
f 720 722 723
f 720 723 721
f 618 721 723
f 722 354 724
f 722 724 725
f 722 725 726
f 722 726 723
f 618 723 726
f 725 724 727
f 725 727 728
f 725 728 729
f 725 729 726
f 618 726 729
f 728 727 730
f 728 730 731
f 728 731 732
f 728 732 729
f 618 729 732
f 731 730 733
f 731 733 734
f 731 734 735
f 731 735 732
f 618 732 735
f 734 733 736
f 734 736 737
f 734 737 738
f 734 738 735
f 618 735 738
f 737 736 739
f 737 739 740
f 737 740 741
f 737 741 738
f 618 738 741
f 740 739 742
f 740 742 743
f 740 743 744
f 740 744 741
f 618 741 744
f 743 742 745
f 743 745 746
f 743 746 747
f 743 747 744
f 618 744 747
f 746 745 748
f 746 748 749
f 746 749 750
f 746 750 747
f 618 747 750
f 749 748 751
f 749 751 752
f 749 752 753
f 749 753 750
f 618 750 753
f 752 751 754
f 752 754 755
f 752 755 756
f 752 756 753
f 618 753 756
f 755 754 757
f 755 757 758
f 755 758 759
f 755 759 756
f 618 756 759
f 758 757 760
f 758 760 761
f 758 761 762
f 758 762 759
f 618 759 762
f 761 760 763
f 761 763 764
f 761 764 765
f 761 765 762
f 618 762 765
f 764 763 766
f 764 766 767
f 764 767 768
f 764 768 765
f 618 765 768
f 767 766 769
f 767 769 770
f 767 770 771
f 767 771 768
f 618 768 771
f 770 769 772
f 770 772 773
f 770 773 774
f 770 774 771
f 618 771 774
f 773 772 137
f 773 137 775
f 773 775 776
f 773 776 774
f 618 774 776
f 775 137 134
f 775 134 777
f 775 777 778
f 775 778 776
f 618 776 778
f 777 134 131
f 777 131 779
f 777 779 780
f 777 780 778
f 618 778 780
f 779 131 128
f 779 128 781
f 779 781 782
f 779 782 780
f 618 780 782
f 781 128 125
f 781 125 783
f 781 783 784
f 781 784 782
f 618 782 784
f 783 125 122
f 783 122 785
f 783 785 786
f 783 786 784
f 618 784 786
f 785 122 119
f 785 119 787
f 785 787 788
f 785 788 786
f 618 786 788
f 787 119 116
f 787 116 789
f 787 789 790
f 787 790 788
f 618 788 790
f 789 116 113
f 789 113 791
f 789 791 792
f 789 792 790
f 618 790 792
f 791 113 110
f 791 110 614
f 791 614 617
f 791 617 792
f 618 792 617
f 793 56 53
f 793 53 794
f 793 794 795
f 793 795 796
f 797 796 795
f 794 53 50
f 794 50 798
f 794 798 799
f 794 799 795
f 797 795 799
f 798 50 47
f 798 47 800
f 798 800 801
f 798 801 799
f 797 799 801
f 800 47 44
f 800 44 802
f 800 802 803
f 800 803 801
f 797 801 803
f 802 44 41
f 802 41 804
f 802 804 805
f 802 805 803
f 797 803 805
f 804 41 38
f 804 38 806
f 804 806 807
f 804 807 805
f 797 805 807
f 806 38 35
f 806 35 808
f 806 808 809
f 806 809 807
f 797 807 809
f 808 35 32
f 808 32 810
f 808 810 811
f 808 811 809
f 797 809 811
f 810 32 29
f 810 29 812
f 810 812 813
f 810 813 811
f 797 811 813
f 812 29 460
f 812 460 814
f 812 814 815
f 812 815 813
f 797 813 815
f 814 460 457
f 814 457 816
f 814 816 817
f 814 817 815
f 797 815 817
f 816 457 454
f 816 454 818
f 816 818 819
f 816 819 817
f 797 817 819
f 818 454 451
f 818 451 820
f 818 820 821
f 818 821 819
f 797 819 821
f 820 451 448
f 820 448 822
f 820 822 823
f 820 823 821
f 797 821 823
f 822 448 445
f 822 445 824
f 822 824 825
f 822 825 823
f 797 823 825
f 824 445 442
f 824 442 826
f 824 826 827
f 824 827 825
f 797 825 827
f 826 442 437
f 826 437 828
f 826 828 829
f 826 829 827
f 797 827 829
f 828 437 436
f 828 436 830
f 828 830 831
f 828 831 829
f 797 829 831
f 830 436 611
f 830 611 832
f 830 832 833
f 830 833 831
f 797 831 833
f 832 611 608
f 832 608 834
f 832 834 835
f 832 835 833
f 797 833 835
f 834 608 605
f 834 605 836
f 834 836 837
f 834 837 835
f 797 835 837
f 836 605 602
f 836 602 838
f 836 838 839
f 836 839 837
f 797 837 839
f 838 602 599
f 838 599 840
f 838 840 841
f 838 841 839
f 797 839 841
f 840 599 596
f 840 596 842
f 840 842 843
f 840 843 841
f 797 841 843
f 842 596 593
f 842 593 844
f 842 844 845
f 842 845 843
f 797 843 845
f 844 593 590
f 844 590 846
f 844 846 847
f 844 847 845
f 797 845 847
f 846 590 246
f 846 246 848
f 846 848 849
f 846 849 847
f 797 847 849
f 848 246 243
f 848 243 850
f 848 850 851
f 848 851 849
f 797 849 851
f 850 243 240
f 850 240 852
f 850 852 853
f 850 853 851
f 797 851 853
f 852 240 237
f 852 237 854
f 852 854 855
f 852 855 853
f 797 853 855
f 854 237 234
f 854 234 856
f 854 856 857
f 854 857 855
f 797 855 857
f 856 234 231
f 856 231 858
f 856 858 859
f 856 859 857
f 797 857 859
f 858 231 228
f 858 228 860
f 858 860 861
f 858 861 859
f 797 859 861
f 860 228 225
f 860 225 862
f 860 862 863
f 860 863 861
f 797 861 863
f 862 225 220
f 862 220 864
f 862 864 865
f 862 865 863
f 797 863 865
f 864 220 219
f 864 219 866
f 864 866 867
f 864 867 865
f 797 865 867
f 866 219 432
f 866 432 868
f 866 868 869
f 866 869 867
f 797 867 869
f 868 432 429
f 868 429 870
f 868 870 871
f 868 871 869
f 797 869 871
f 870 429 426
f 870 426 872
f 870 872 873
f 870 873 871
f 797 871 873
f 872 426 423
f 872 423 874
f 872 874 875
f 872 875 873
f 797 873 875
f 874 423 420
f 874 420 876
f 874 876 877
f 874 877 875
f 797 875 877
f 876 420 417
f 876 417 878
f 876 878 879
f 876 879 877
f 797 877 879
f 878 417 414
f 878 414 880
f 878 880 881
f 878 881 879
f 797 879 881
f 880 414 411
f 880 411 882
f 880 882 883
f 880 883 881
f 797 881 883
f 882 411 408
f 882 408 884
f 882 884 885
f 882 885 883
f 797 883 885
f 884 408 683
f 884 683 886
f 884 886 887
f 884 887 885
f 797 885 887
f 886 683 680
f 886 680 888
f 886 888 889
f 886 889 887
f 797 887 889
f 888 680 677
f 888 677 890
f 888 890 891
f 888 891 889
f 797 889 891
f 890 677 674
f 890 674 892
f 890 892 893
f 890 893 891
f 797 891 893
f 892 674 671
f 892 671 894
f 892 894 895
f 892 895 893
f 797 893 895
f 894 671 668
f 894 668 896
f 894 896 897
f 894 897 895
f 797 895 897
f 896 668 665
f 896 665 898
f 896 898 899
f 896 899 897
f 797 897 899
f 898 665 662
f 898 662 900
f 898 900 901
f 898 901 899
f 797 899 901
f 900 662 659
f 900 659 902
f 900 902 903
f 900 903 901
f 797 901 903
f 902 659 656
f 902 656 904
f 902 904 905
f 902 905 903
f 797 903 905
f 904 656 653
f 904 653 906
f 904 906 907
f 904 907 905
f 797 905 907
f 906 653 650
f 906 650 908
f 906 908 909
f 906 909 907
f 797 907 909
f 908 650 647
f 908 647 910
f 908 910 911
f 908 911 909
f 797 909 911
f 910 647 644
f 910 644 912
f 910 912 913
f 910 913 911
f 797 911 913
f 912 644 641
f 912 641 914
f 912 914 915
f 912 915 913
f 797 913 915
f 914 641 638
f 914 638 916
f 914 916 917
f 914 917 915
f 797 915 917
f 916 638 635
f 916 635 918
f 916 918 919
f 916 919 917
f 797 917 919
f 918 635 83
f 918 83 920
f 918 920 921
f 918 921 919
f 797 919 921
f 920 83 80
f 920 80 922
f 920 922 923
f 920 923 921
f 797 921 923
f 922 80 77
f 922 77 924
f 922 924 925
f 922 925 923
f 797 923 925
f 924 77 74
f 924 74 926
f 924 926 927
f 924 927 925
f 797 925 927
f 926 74 71
f 926 71 928
f 926 928 929
f 926 929 927
f 797 927 929
f 928 71 68
f 928 68 930
f 928 930 931
f 928 931 929
f 797 929 931
f 930 68 65
f 930 65 932
f 930 932 933
f 930 933 931
f 797 931 933
f 932 65 62
f 932 62 934
f 932 934 935
f 932 935 933
f 797 933 935
f 934 62 59
f 934 59 936
f 934 936 937
f 934 937 935
f 797 935 937
f 936 59 56
f 936 56 793
f 936 793 796
f 936 796 937
f 797 937 796
f 938 525 522
f 938 522 939
f 938 939 940
f 938 940 941
f 942 941 940
f 939 522 519
f 939 519 943
f 939 943 944
f 939 944 940
f 942 940 944
f 943 519 516
f 943 516 945
f 943 945 946
f 943 946 944
f 942 944 946
f 945 516 513
f 945 513 947
f 945 947 948
f 945 948 946
f 942 946 948
f 947 513 510
f 947 510 949
f 947 949 950
f 947 950 948
f 942 948 950
f 949 510 507
f 949 507 951
f 949 951 952
f 949 952 950
f 942 950 952
f 951 507 504
f 951 504 953
f 951 953 954
f 951 954 952
f 942 952 954
f 953 504 501
f 953 501 955
f 953 955 956
f 953 956 954
f 942 954 956
f 955 501 191
f 955 191 957
f 955 957 958
f 955 958 956
f 942 956 958
f 957 191 188
f 957 188 959
f 957 959 960
f 957 960 958
f 942 958 960
f 959 188 185
f 959 185 961
f 959 961 962
f 959 962 960
f 942 960 962
f 961 185 182
f 961 182 963
f 961 963 964
f 961 964 962
f 942 962 964
f 963 182 179
f 963 179 965
f 963 965 966
f 963 966 964
f 942 964 966
f 965 179 176
f 965 176 967
f 965 967 968
f 965 968 966
f 942 966 968
f 967 176 173
f 967 173 969
f 967 969 970
f 967 970 968
f 942 968 970
f 969 173 170
f 969 170 971
f 969 971 972
f 969 972 970
f 942 970 972
f 971 170 167
f 971 167 973
f 971 973 974
f 971 974 972
f 942 972 974
f 973 167 164
f 973 164 975
f 973 975 976
f 973 976 974
f 942 974 976
f 975 164 161
f 975 161 977
f 975 977 978
f 975 978 976
f 942 976 978
f 977 161 158
f 977 158 979
f 977 979 980
f 977 980 978
f 942 978 980
f 979 158 155
f 979 155 981
f 979 981 982
f 979 982 980
f 942 980 982
f 981 155 152
f 981 152 983
f 981 983 984
f 981 984 982
f 942 982 984
f 983 152 149
f 983 149 985
f 983 985 986
f 983 986 984
f 942 984 986
f 985 149 146
f 985 146 987
f 985 987 988
f 985 988 986
f 942 986 988
f 987 146 143
f 987 143 989
f 987 989 990
f 987 990 988
f 942 988 990
f 989 143 140
f 989 140 991
f 989 991 992
f 989 992 990
f 942 990 992
f 991 140 137
f 991 137 993
f 991 993 994
f 991 994 992
f 942 992 994
f 993 137 772
f 993 772 995
f 993 995 996
f 993 996 994
f 942 994 996
f 995 772 769
f 995 769 997
f 995 997 998
f 995 998 996
f 942 996 998
f 997 769 766
f 997 766 999
f 997 999 1000
f 997 1000 998
f 942 998 1000
f 999 766 763
f 999 763 1001
f 999 1001 1002
f 999 1002 1000
f 942 1000 1002
f 1001 763 760
f 1001 760 1003
f 1001 1003 1004
f 1001 1004 1002
f 942 1002 1004
f 1003 760 757
f 1003 757 1005
f 1003 1005 1006
f 1003 1006 1004
f 942 1004 1006
f 1005 757 754
f 1005 754 1007
f 1005 1007 1008
f 1005 1008 1006
f 942 1006 1008
f 1007 754 751
f 1007 751 1009
f 1007 1009 1010
f 1007 1010 1008
f 942 1008 1010
f 1009 751 748
f 1009 748 1011
f 1009 1011 1012
f 1009 1012 1010
f 942 1010 1012
f 1011 748 745
f 1011 745 1013
f 1011 1013 1014
f 1011 1014 1012
f 942 1012 1014
f 1013 745 742
f 1013 742 1015
f 1013 1015 1016
f 1013 1016 1014
f 942 1014 1016
f 1015 742 739
f 1015 739 1017
f 1015 1017 1018
f 1015 1018 1016
f 942 1016 1018
f 1017 739 736
f 1017 736 1019
f 1017 1019 1020
f 1017 1020 1018
f 942 1018 1020
f 1019 736 733
f 1019 733 1021
f 1019 1021 1022
f 1019 1022 1020
f 942 1020 1022
f 1021 733 730
f 1021 730 1023
f 1021 1023 1024
f 1021 1024 1022
f 942 1022 1024
f 1023 730 727
f 1023 727 1025
f 1023 1025 1026
f 1023 1026 1024
f 942 1024 1026
f 1025 727 724
f 1025 724 1027
f 1025 1027 1028
f 1025 1028 1026
f 942 1026 1028
f 1027 724 354
f 1027 354 1029
f 1027 1029 1030
f 1027 1030 1028
f 942 1028 1030
f 1029 354 351
f 1029 351 1031
f 1029 1031 1032
f 1029 1032 1030
f 942 1030 1032
f 1031 351 348
f 1031 348 1033
f 1031 1033 1034
f 1031 1034 1032
f 942 1032 1034
f 1033 348 345
f 1033 345 1035
f 1033 1035 1036
f 1033 1036 1034
f 942 1034 1036
f 1035 345 342
f 1035 342 1037
f 1035 1037 1038
f 1035 1038 1036
f 942 1036 1038
f 1037 342 339
f 1037 339 1039
f 1037 1039 1040
f 1037 1040 1038
f 942 1038 1040
f 1039 339 336
f 1039 336 1041
f 1039 1041 1042
f 1039 1042 1040
f 942 1040 1042
f 1041 336 333
f 1041 333 1043
f 1041 1043 1044
f 1041 1044 1042
f 942 1042 1044
f 1043 333 330
f 1043 330 1045
f 1043 1045 1046
f 1043 1046 1044
f 942 1044 1046
f 1045 330 327
f 1045 327 1047
f 1045 1047 1048
f 1045 1048 1046
f 942 1046 1048
f 1047 327 324
f 1047 324 1049
f 1047 1049 1050
f 1047 1050 1048
f 942 1048 1050
f 1049 324 321
f 1049 321 1051
f 1049 1051 1052
f 1049 1052 1050
f 942 1050 1052
f 1051 321 318
f 1051 318 1053
f 1051 1053 1054
f 1051 1054 1052
f 942 1052 1054
f 1053 318 315
f 1053 315 1055
f 1053 1055 1056
f 1053 1056 1054
f 942 1054 1056
f 1055 315 312
f 1055 312 1057
f 1055 1057 1058
f 1055 1058 1056
f 942 1056 1058
f 1057 312 309
f 1057 309 1059
f 1057 1059 1060
f 1057 1060 1058
f 942 1058 1060
f 1059 309 306
f 1059 306 1061
f 1059 1061 1062
f 1059 1062 1060
f 942 1060 1062
f 1061 306 303
f 1061 303 1063
f 1061 1063 1064
f 1061 1064 1062
f 942 1062 1064
f 1063 303 300
f 1063 300 1065
f 1063 1065 1066
f 1063 1066 1064
f 942 1064 1066
f 1065 300 549
f 1065 549 1067
f 1065 1067 1068
f 1065 1068 1066
f 942 1066 1068
f 1067 549 546
f 1067 546 1069
f 1067 1069 1070
f 1067 1070 1068
f 942 1068 1070
f 1069 546 543
f 1069 543 1071
f 1069 1071 1072
f 1069 1072 1070
f 942 1070 1072
f 1071 543 540
f 1071 540 1073
f 1071 1073 1074
f 1071 1074 1072
f 942 1072 1074
f 1073 540 537
f 1073 537 1075
f 1073 1075 1076
f 1073 1076 1074
f 942 1074 1076
f 1075 537 534
f 1075 534 1077
f 1075 1077 1078
f 1075 1078 1076
f 942 1076 1078
f 1077 534 531
f 1077 531 1079
f 1077 1079 1080
f 1077 1080 1078
f 942 1078 1080
f 1079 531 528
f 1079 528 1081
f 1079 1081 1082
f 1079 1082 1080
f 942 1080 1082
f 1081 528 525
f 1081 525 938
f 1081 938 941
f 1081 941 1082
f 942 1082 941
