# Lumatable puck-70-round (mm)
o puck-70-round
v 26.50000 0.00000 18.00000
v 35.00000 0.00000 18.00000
v 34.86681 3.05045 18.00000
v 26.39916 2.30963 18.00000
v 26.39916 2.30963 17.20000
v 26.50000 0.00000 17.20000
v 0.00000 0.00000 17.20000
v 34.46827 6.07769 18.00000
v 26.09741 4.60168 18.00000
v 26.09741 4.60168 17.20000
v 33.80740 9.05867 18.00000
v 25.59703 6.85870 18.00000
v 25.59703 6.85870 17.20000
v 32.88924 11.97071 18.00000
v 24.90185 9.06353 18.00000
v 24.90185 9.06353 17.20000
v 31.72077 14.79164 18.00000
v 24.01716 11.19938 18.00000
v 24.01716 11.19938 17.20000
v 30.31089 17.50000 18.00000
v 22.94967 13.25000 18.00000
v 22.94967 13.25000 17.20000
v 28.67032 20.07518 18.00000
v 21.70753 15.19978 18.00000
v 21.70753 15.19978 17.20000
v 26.81156 22.49757 18.00000
v 20.30018 17.03387 18.00000
v 20.30018 17.03387 17.20000
v 24.74874 24.74874 18.00000
v 18.73833 18.73833 18.00000
v 18.73833 18.73833 17.20000
v 22.49757 26.81156 18.00000
v 17.03387 20.30018 18.00000
v 17.03387 20.30018 17.20000
v 20.07518 28.67032 18.00000
v 15.19978 21.70753 18.00000
v 15.19978 21.70753 17.20000
v 17.50000 30.31089 18.00000
v 13.25000 22.94967 18.00000
v 13.25000 22.94967 17.20000
v 14.79164 31.72077 18.00000
v 11.19938 24.01716 18.00000
v 11.19938 24.01716 17.20000
v 11.97071 32.88924 18.00000
v 9.06353 24.90185 18.00000
v 9.06353 24.90185 17.20000
v 9.05867 33.80740 18.00000
v 6.85870 25.59703 18.00000
v 6.85870 25.59703 17.20000
v 6.07769 34.46827 18.00000
v 4.60168 26.09741 18.00000
v 4.60168 26.09741 17.20000
v 3.05045 34.86681 18.00000
v 2.30963 26.39916 18.00000
v 2.30963 26.39916 17.20000
v 0.00000 35.00000 18.00000
v 0.00000 26.50000 18.00000
v 0.00000 26.50000 17.20000
v -3.05045 34.86681 18.00000
v -2.30963 26.39916 18.00000
v -2.30963 26.39916 17.20000
v -6.07769 34.46827 18.00000
v -4.60168 26.09741 18.00000
v -4.60168 26.09741 17.20000
v -9.05867 33.80740 18.00000
v -6.85870 25.59703 18.00000
v -6.85870 25.59703 17.20000
v -11.97071 32.88924 18.00000
v -9.06353 24.90185 18.00000
v -9.06353 24.90185 17.20000
v -14.79164 31.72077 18.00000
v -11.19938 24.01716 18.00000
v -11.19938 24.01716 17.20000
v -17.50000 30.31089 18.00000
v -13.25000 22.94967 18.00000
v -13.25000 22.94967 17.20000
v -20.07518 28.67032 18.00000
v -15.19978 21.70753 18.00000
v -15.19978 21.70753 17.20000
v -22.49757 26.81156 18.00000
v -17.03387 20.30018 18.00000
v -17.03387 20.30018 17.20000
v -24.74874 24.74874 18.00000
v -18.73833 18.73833 18.00000
v -18.73833 18.73833 17.20000
v -26.81156 22.49757 18.00000
v -20.30018 17.03387 18.00000
v -20.30018 17.03387 17.20000
v -28.67032 20.07518 18.00000
v -21.70753 15.19978 18.00000
v -21.70753 15.19978 17.20000
v -30.31089 17.50000 18.00000
v -22.94967 13.25000 18.00000
v -22.94967 13.25000 17.20000
v -31.72077 14.79164 18.00000
v -24.01716 11.19938 18.00000
v -24.01716 11.19938 17.20000
v -32.88924 11.97071 18.00000
v -24.90185 9.06353 18.00000
v -24.90185 9.06353 17.20000
v -33.80740 9.05867 18.00000
v -25.59703 6.85870 18.00000
v -25.59703 6.85870 17.20000
v -34.46827 6.07769 18.00000
v -26.09741 4.60168 18.00000
v -26.09741 4.60168 17.20000
v -34.86681 3.05045 18.00000
v -26.39916 2.30963 18.00000
v -26.39916 2.30963 17.20000
v -35.00000 0.00000 18.00000
v -26.50000 0.00000 18.00000
v -26.50000 0.00000 17.20000
v -34.86681 -3.05045 18.00000
v -26.39916 -2.30963 18.00000
v -26.39916 -2.30963 17.20000
v -34.46827 -6.07769 18.00000
v -26.09741 -4.60168 18.00000
v -26.09741 -4.60168 17.20000
v -33.80740 -9.05867 18.00000
v -25.59703 -6.85870 18.00000
v -25.59703 -6.85870 17.20000
v -32.88924 -11.97071 18.00000
v -24.90185 -9.06353 18.00000
v -24.90185 -9.06353 17.20000
v -31.72077 -14.79164 18.00000
v -24.01716 -11.19938 18.00000
v -24.01716 -11.19938 17.20000
v -30.31089 -17.50000 18.00000
v -22.94967 -13.25000 18.00000
v -22.94967 -13.25000 17.20000
v -28.67032 -20.07518 18.00000
v -21.70753 -15.19978 18.00000
v -21.70753 -15.19978 17.20000
v -26.81156 -22.49757 18.00000
v -20.30018 -17.03387 18.00000
v -20.30018 -17.03387 17.20000
v -24.74874 -24.74874 18.00000
v -18.73833 -18.73833 18.00000
v -18.73833 -18.73833 17.20000
v -22.49757 -26.81156 18.00000
v -17.03387 -20.30018 18.00000
v -17.03387 -20.30018 17.20000
v -20.07518 -28.67032 18.00000
v -15.19978 -21.70753 18.00000
v -15.19978 -21.70753 17.20000
v -17.50000 -30.31089 18.00000
v -13.25000 -22.94967 18.00000
v -13.25000 -22.94967 17.20000
v -14.79164 -31.72077 18.00000
v -11.19938 -24.01716 18.00000
v -11.19938 -24.01716 17.20000
v -11.97071 -32.88924 18.00000
v -9.06353 -24.90185 18.00000
v -9.06353 -24.90185 17.20000
v -9.05867 -33.80740 18.00000
v -6.85870 -25.59703 18.00000
v -6.85870 -25.59703 17.20000
v -6.07769 -34.46827 18.00000
v -4.60168 -26.09741 18.00000
v -4.60168 -26.09741 17.20000
v -3.05045 -34.86681 18.00000
v -2.30963 -26.39916 18.00000
v -2.30963 -26.39916 17.20000
v -0.00000 -35.00000 18.00000
v -0.00000 -26.50000 18.00000
v -0.00000 -26.50000 17.20000
v 3.05045 -34.86681 18.00000
v 2.30963 -26.39916 18.00000
v 2.30963 -26.39916 17.20000
v 6.07769 -34.46827 18.00000
v 4.60168 -26.09741 18.00000
v 4.60168 -26.09741 17.20000
v 9.05867 -33.80740 18.00000
v 6.85870 -25.59703 18.00000
v 6.85870 -25.59703 17.20000
v 11.97071 -32.88924 18.00000
v 9.06353 -24.90185 18.00000
v 9.06353 -24.90185 17.20000
v 14.79164 -31.72077 18.00000
v 11.19938 -24.01716 18.00000
v 11.19938 -24.01716 17.20000
v 17.50000 -30.31089 18.00000
v 13.25000 -22.94967 18.00000
v 13.25000 -22.94967 17.20000
v 20.07518 -28.67032 18.00000
v 15.19978 -21.70753 18.00000
v 15.19978 -21.70753 17.20000
v 22.49757 -26.81156 18.00000
v 17.03387 -20.30018 18.00000
v 17.03387 -20.30018 17.20000
v 24.74874 -24.74874 18.00000
v 18.73833 -18.73833 18.00000
v 18.73833 -18.73833 17.20000
v 26.81156 -22.49757 18.00000
v 20.30018 -17.03387 18.00000
v 20.30018 -17.03387 17.20000
v 28.67032 -20.07518 18.00000
v 21.70753 -15.19978 18.00000
v 21.70753 -15.19978 17.20000
v 30.31089 -17.50000 18.00000
v 22.94967 -13.25000 18.00000
v 22.94967 -13.25000 17.20000
v 31.72077 -14.79164 18.00000
v 24.01716 -11.19938 18.00000
v 24.01716 -11.19938 17.20000
v 32.88924 -11.97071 18.00000
v 24.90185 -9.06353 18.00000
v 24.90185 -9.06353 17.20000
v 33.80740 -9.05867 18.00000
v 25.59703 -6.85870 18.00000
v 25.59703 -6.85870 17.20000
v 34.46827 -6.07769 18.00000
v 26.09741 -4.60168 18.00000
v 26.09741 -4.60168 17.20000
v 34.86681 -3.05045 18.00000
v 26.39916 -2.30963 18.00000
v 26.39916 -2.30963 17.20000
v 30.00000 0.00000 0.00000
v 34.86681 3.05045 0.00000
v 35.00000 0.00000 0.00000
v 29.88584 2.61467 0.00000
v 29.88584 2.61467 1.00000
v 30.00000 0.00000 1.00000
v 0.00000 0.00000 1.00000
v 34.46827 6.07769 0.00000
v 29.54423 5.20945 0.00000
v 29.54423 5.20945 1.00000
v 33.80740 9.05867 0.00000
v 28.97777 7.76457 0.00000
v 28.97777 7.76457 1.00000
v 32.88924 11.97071 0.00000
v 28.19078 10.26060 0.00000
v 28.19078 10.26060 1.00000
v 31.72077 14.79164 0.00000
v 27.18923 12.67855 0.00000
v 27.18923 12.67855 1.00000
v 30.31089 17.50000 0.00000
v 25.98076 15.00000 0.00000
v 25.98076 15.00000 1.00000
v 28.67032 20.07518 0.00000
v 24.57456 17.20729 0.00000
v 24.57456 17.20729 1.00000
v 26.81156 22.49757 0.00000
v 22.98133 19.28363 0.00000
v 22.98133 19.28363 1.00000
v 24.74874 24.74874 0.00000
v 21.21320 21.21320 0.00000
v 21.21320 21.21320 1.00000
v 22.49757 26.81156 0.00000
v 19.28363 22.98133 0.00000
v 19.28363 22.98133 1.00000
v 20.07518 28.67032 0.00000
v 17.20729 24.57456 0.00000
v 17.20729 24.57456 1.00000
v 17.50000 30.31089 0.00000
v 15.00000 25.98076 0.00000
v 15.00000 25.98076 1.00000
v 14.79164 31.72077 0.00000
v 12.67855 27.18923 0.00000
v 12.67855 27.18923 1.00000
v 11.97071 32.88924 0.00000
v 10.26060 28.19078 0.00000
v 10.26060 28.19078 1.00000
v 9.05867 33.80740 0.00000
v 7.76457 28.97777 0.00000
v 7.76457 28.97777 1.00000
v 6.07769 34.46827 0.00000
v 5.20945 29.54423 0.00000
v 5.20945 29.54423 1.00000
v 3.05045 34.86681 0.00000
v 2.61467 29.88584 0.00000
v 2.61467 29.88584 1.00000
v 0.00000 35.00000 0.00000
v 0.00000 30.00000 0.00000
v 0.00000 30.00000 1.00000
v -3.05045 34.86681 0.00000
v -2.61467 29.88584 0.00000
v -2.61467 29.88584 1.00000
v -6.07769 34.46827 0.00000
v -5.20945 29.54423 0.00000
v -5.20945 29.54423 1.00000
v -9.05867 33.80740 0.00000
v -7.76457 28.97777 0.00000
v -7.76457 28.97777 1.00000
v -11.97071 32.88924 0.00000
v -10.26060 28.19078 0.00000
v -10.26060 28.19078 1.00000
v -14.79164 31.72077 0.00000
v -12.67855 27.18923 0.00000
v -12.67855 27.18923 1.00000
v -17.50000 30.31089 0.00000
v -15.00000 25.98076 0.00000
v -15.00000 25.98076 1.00000
v -20.07518 28.67032 0.00000
v -17.20729 24.57456 0.00000
v -17.20729 24.57456 1.00000
v -22.49757 26.81156 0.00000
v -19.28363 22.98133 0.00000
v -19.28363 22.98133 1.00000
v -24.74874 24.74874 0.00000
v -21.21320 21.21320 0.00000
v -21.21320 21.21320 1.00000
v -26.81156 22.49757 0.00000
v -22.98133 19.28363 0.00000
v -22.98133 19.28363 1.00000
v -28.67032 20.07518 0.00000
v -24.57456 17.20729 0.00000
v -24.57456 17.20729 1.00000
v -30.31089 17.50000 0.00000
v -25.98076 15.00000 0.00000
v -25.98076 15.00000 1.00000
v -31.72077 14.79164 0.00000
v -27.18923 12.67855 0.00000
v -27.18923 12.67855 1.00000
v -32.88924 11.97071 0.00000
v -28.19078 10.26060 0.00000
v -28.19078 10.26060 1.00000
v -33.80740 9.05867 0.00000
v -28.97777 7.76457 0.00000
v -28.97777 7.76457 1.00000
v -34.46827 6.07769 0.00000
v -29.54423 5.20945 0.00000
v -29.54423 5.20945 1.00000
v -34.86681 3.05045 0.00000
v -29.88584 2.61467 0.00000
v -29.88584 2.61467 1.00000
v -35.00000 0.00000 0.00000
v -30.00000 0.00000 0.00000
v -30.00000 0.00000 1.00000
v -34.86681 -3.05045 0.00000
v -29.88584 -2.61467 0.00000
v -29.88584 -2.61467 1.00000
v -34.46827 -6.07769 0.00000
v -29.54423 -5.20945 0.00000
v -29.54423 -5.20945 1.00000
v -33.80740 -9.05867 0.00000
v -28.97777 -7.76457 0.00000
v -28.97777 -7.76457 1.00000
v -32.88924 -11.97071 0.00000
v -28.19078 -10.26060 0.00000
v -28.19078 -10.26060 1.00000
v -31.72077 -14.79164 0.00000
v -27.18923 -12.67855 0.00000
v -27.18923 -12.67855 1.00000
v -30.31089 -17.50000 0.00000
v -25.98076 -15.00000 0.00000
v -25.98076 -15.00000 1.00000
v -28.67032 -20.07518 0.00000
v -24.57456 -17.20729 0.00000
v -24.57456 -17.20729 1.00000
v -26.81156 -22.49757 0.00000
v -22.98133 -19.28363 0.00000
v -22.98133 -19.28363 1.00000
v -24.74874 -24.74874 0.00000
v -21.21320 -21.21320 0.00000
v -21.21320 -21.21320 1.00000
v -22.49757 -26.81156 0.00000
v -19.28363 -22.98133 0.00000
v -19.28363 -22.98133 1.00000
v -20.07518 -28.67032 0.00000
v -17.20729 -24.57456 0.00000
v -17.20729 -24.57456 1.00000
v -17.50000 -30.31089 0.00000
v -15.00000 -25.98076 0.00000
v -15.00000 -25.98076 1.00000
v -14.79164 -31.72077 0.00000
v -12.67855 -27.18923 0.00000
v -12.67855 -27.18923 1.00000
v -11.97071 -32.88924 0.00000
v -10.26060 -28.19078 0.00000
v -10.26060 -28.19078 1.00000
v -9.05867 -33.80740 0.00000
v -7.76457 -28.97777 0.00000
v -7.76457 -28.97777 1.00000
v -6.07769 -34.46827 0.00000
v -5.20945 -29.54423 0.00000
v -5.20945 -29.54423 1.00000
v -3.05045 -34.86681 0.00000
v -2.61467 -29.88584 0.00000
v -2.61467 -29.88584 1.00000
v -0.00000 -35.00000 0.00000
v -0.00000 -30.00000 0.00000
v -0.00000 -30.00000 1.00000
v 3.05045 -34.86681 0.00000
v 2.61467 -29.88584 0.00000
v 2.61467 -29.88584 1.00000
v 6.07769 -34.46827 0.00000
v 5.20945 -29.54423 0.00000
v 5.20945 -29.54423 1.00000
v 9.05867 -33.80740 0.00000
v 7.76457 -28.97777 0.00000
v 7.76457 -28.97777 1.00000
v 11.97071 -32.88924 0.00000
v 10.26060 -28.19078 0.00000
v 10.26060 -28.19078 1.00000
v 14.79164 -31.72077 0.00000
v 12.67855 -27.18923 0.00000
v 12.67855 -27.18923 1.00000
v 17.50000 -30.31089 0.00000
v 15.00000 -25.98076 0.00000
v 15.00000 -25.98076 1.00000
v 20.07518 -28.67032 0.00000
v 17.20729 -24.57456 0.00000
v 17.20729 -24.57456 1.00000
v 22.49757 -26.81156 0.00000
v 19.28363 -22.98133 0.00000
v 19.28363 -22.98133 1.00000
v 24.74874 -24.74874 0.00000
v 21.21320 -21.21320 0.00000
v 21.21320 -21.21320 1.00000
v 26.81156 -22.49757 0.00000
v 22.98133 -19.28363 0.00000
v 22.98133 -19.28363 1.00000
v 28.67032 -20.07518 0.00000
v 24.57456 -17.20729 0.00000
v 24.57456 -17.20729 1.00000
v 30.31089 -17.50000 0.00000
v 25.98076 -15.00000 0.00000
v 25.98076 -15.00000 1.00000
v 31.72077 -14.79164 0.00000
v 27.18923 -12.67855 0.00000
v 27.18923 -12.67855 1.00000
v 32.88924 -11.97071 0.00000
v 28.19078 -10.26060 0.00000
v 28.19078 -10.26060 1.00000
v 33.80740 -9.05867 0.00000
v 28.97777 -7.76457 0.00000
v 28.97777 -7.76457 1.00000
v 34.46827 -6.07769 0.00000
v 29.54423 -5.20945 0.00000
v 29.54423 -5.20945 1.00000
v 34.86681 -3.05045 0.00000
v 29.88584 -2.61467 0.00000
v 29.88584 -2.61467 1.00000
f 1 2 3
f 1 3 4
f 1 4 5
f 1 5 6
f 7 6 5
f 4 3 8
f 4 8 9
f 4 9 10
f 4 10 5
f 7 5 10
f 9 8 11
f 9 11 12
f 9 12 13
f 9 13 10
f 7 10 13
f 12 11 14
f 12 14 15
f 12 15 16
f 12 16 13
f 7 13 16
f 15 14 17
f 15 17 18
f 15 18 19
f 15 19 16
f 7 16 19
f 18 17 20
f 18 20 21
f 18 21 22
f 18 22 19
f 7 19 22
f 21 20 23
f 21 23 24
f 21 24 25
f 21 25 22
f 7 22 25
f 24 23 26
f 24 26 27
f 24 27 28
f 24 28 25
f 7 25 28
f 27 26 29
f 27 29 30
f 27 30 31
f 27 31 28
f 7 28 31
f 30 29 32
f 30 32 33
f 30 33 34
f 30 34 31
f 7 31 34
f 33 32 35
f 33 35 36
f 33 36 37
f 33 37 34
f 7 34 37
f 36 35 38
f 36 38 39
f 36 39 40
f 36 40 37
f 7 37 40
f 39 38 41
f 39 41 42
f 39 42 43
f 39 43 40
f 7 40 43
f 42 41 44
f 42 44 45
f 42 45 46
f 42 46 43
f 7 43 46
f 45 44 47
f 45 47 48
f 45 48 49
f 45 49 46
f 7 46 49
f 48 47 50
f 48 50 51
f 48 51 52
f 48 52 49
f 7 49 52
f 51 50 53
f 51 53 54
f 51 54 55
f 51 55 52
f 7 52 55
f 54 53 56
f 54 56 57
f 54 57 58
f 54 58 55
f 7 55 58
f 57 56 59
f 57 59 60
f 57 60 61
f 57 61 58
f 7 58 61
f 60 59 62
f 60 62 63
f 60 63 64
f 60 64 61
f 7 61 64
f 63 62 65
f 63 65 66
f 63 66 67
f 63 67 64
f 7 64 67
f 66 65 68
f 66 68 69
f 66 69 70
f 66 70 67
f 7 67 70
f 69 68 71
f 69 71 72
f 69 72 73
f 69 73 70
f 7 70 73
f 72 71 74
f 72 74 75
f 72 75 76
f 72 76 73
f 7 73 76
f 75 74 77
f 75 77 78
f 75 78 79
f 75 79 76
f 7 76 79
f 78 77 80
f 78 80 81
f 78 81 82
f 78 82 79
f 7 79 82
f 81 80 83
f 81 83 84
f 81 84 85
f 81 85 82
f 7 82 85
f 84 83 86
f 84 86 87
f 84 87 88
f 84 88 85
f 7 85 88
f 87 86 89
f 87 89 90
f 87 90 91
f 87 91 88
f 7 88 91
f 90 89 92
f 90 92 93
f 90 93 94
f 90 94 91
f 7 91 94
f 93 92 95
f 93 95 96
f 93 96 97
f 93 97 94
f 7 94 97
f 96 95 98
f 96 98 99
f 96 99 100
f 96 100 97
f 7 97 100
f 99 98 101
f 99 101 102
f 99 102 103
f 99 103 100
f 7 100 103
f 102 101 104
f 102 104 105
f 102 105 106
f 102 106 103
f 7 103 106
f 105 104 107
f 105 107 108
f 105 108 109
f 105 109 106
f 7 106 109
f 108 107 110
f 108 110 111
f 108 111 112
f 108 112 109
f 7 109 112
f 111 110 113
f 111 113 114
f 111 114 115
f 111 115 112
f 7 112 115
f 114 113 116
f 114 116 117
f 114 117 118
f 114 118 115
f 7 115 118
f 117 116 119
f 117 119 120
f 117 120 121
f 117 121 118
f 7 118 121
f 120 119 122
f 120 122 123
f 120 123 124
f 120 124 121
f 7 121 124
f 123 122 125
f 123 125 126
f 123 126 127
f 123 127 124
f 7 124 127
f 126 125 128
f 126 128 129
f 126 129 130
f 126 130 127
f 7 127 130
f 129 128 131
f 129 131 132
f 129 132 133
f 129 133 130
f 7 130 133
f 132 131 134
f 132 134 135
f 132 135 136
f 132 136 133
f 7 133 136
f 135 134 137
f 135 137 138
f 135 138 139
f 135 139 136
f 7 136 139
f 138 137 140
f 138 140 141
f 138 141 142
f 138 142 139
f 7 139 142
f 141 140 143
f 141 143 144
f 141 144 145
f 141 145 142
f 7 142 145
f 144 143 146
f 144 146 147
f 144 147 148
f 144 148 145
f 7 145 148
f 147 146 149
f 147 149 150
f 147 150 151
f 147 151 148
f 7 148 151
f 150 149 152
f 150 152 153
f 150 153 154
f 150 154 151
f 7 151 154
f 153 152 155
f 153 155 156
f 153 156 157
f 153 157 154
f 7 154 157
f 156 155 158
f 156 158 159
f 156 159 160
f 156 160 157
f 7 157 160
f 159 158 161
f 159 161 162
f 159 162 163
f 159 163 160
f 7 160 163
f 162 161 164
f 162 164 165
f 162 165 166
f 162 166 163
f 7 163 166
f 165 164 167
f 165 167 168
f 165 168 169
f 165 169 166
f 7 166 169
f 168 167 170
f 168 170 171
f 168 171 172
f 168 172 169
f 7 169 172
f 171 170 173
f 171 173 174
f 171 174 175
f 171 175 172
f 7 172 175
f 174 173 176
f 174 176 177
f 174 177 178
f 174 178 175
f 7 175 178
f 177 176 179
f 177 179 180
f 177 180 181
f 177 181 178
f 7 178 181
f 180 179 182
f 180 182 183
f 180 183 184
f 180 184 181
f 7 181 184
f 183 182 185
f 183 185 186
f 183 186 187
f 183 187 184
f 7 184 187
f 186 185 188
f 186 188 189
f 186 189 190
f 186 190 187
f 7 187 190
f 189 188 191
f 189 191 192
f 189 192 193
f 189 193 190
f 7 190 193
f 192 191 194
f 192 194 195
f 192 195 196
f 192 196 193
f 7 193 196
f 195 194 197
f 195 197 198
f 195 198 199
f 195 199 196
f 7 196 199
f 198 197 200
f 198 200 201
f 198 201 202
f 198 202 199
f 7 199 202
f 201 200 203
f 201 203 204
f 201 204 205
f 201 205 202
f 7 202 205
f 204 203 206
f 204 206 207
f 204 207 208
f 204 208 205
f 7 205 208
f 207 206 209
f 207 209 210
f 207 210 211
f 207 211 208
f 7 208 211
f 210 209 212
f 210 212 213
f 210 213 214
f 210 214 211
f 7 211 214
f 213 212 215
f 213 215 216
f 213 216 217
f 213 217 214
f 7 214 217
f 216 215 2
f 216 2 1
f 216 1 6
f 216 6 217
f 7 217 6
f 218 219 220
f 218 221 219
f 218 222 221
f 218 223 222
f 224 222 223
f 221 225 219
f 221 226 225
f 221 227 226
f 221 222 227
f 224 227 222
f 226 228 225
f 226 229 228
f 226 230 229
f 226 227 230
f 224 230 227
f 229 231 228
f 229 232 231
f 229 233 232
f 229 230 233
f 224 233 230
f 232 234 231
f 232 235 234
f 232 236 235
f 232 233 236
f 224 236 233
f 235 237 234
f 235 238 237
f 235 239 238
f 235 236 239
f 224 239 236
f 238 240 237
f 238 241 240
f 238 242 241
f 238 239 242
f 224 242 239
f 241 243 240
f 241 244 243
f 241 245 244
f 241 242 245
f 224 245 242
f 244 246 243
f 244 247 246
f 244 248 247
f 244 245 248
f 224 248 245
f 247 249 246
f 247 250 249
f 247 251 250
f 247 248 251
f 224 251 248
f 250 252 249
f 250 253 252
f 250 254 253
f 250 251 254
f 224 254 251
f 253 255 252
f 253 256 255
f 253 257 256
f 253 254 257
f 224 257 254
f 256 258 255
f 256 259 258
f 256 260 259
f 256 257 260
f 224 260 257
f 259 261 258
f 259 262 261
f 259 263 262
f 259 260 263
f 224 263 260
f 262 264 261
f 262 265 264
f 262 266 265
f 262 263 266
f 224 266 263
f 265 267 264
f 265 268 267
f 265 269 268
f 265 266 269
f 224 269 266
f 268 270 267
f 268 271 270
f 268 272 271
f 268 269 272
f 224 272 269
f 271 273 270
f 271 274 273
f 271 275 274
f 271 272 275
f 224 275 272
f 274 276 273
f 274 277 276
f 274 278 277
f 274 275 278
f 224 278 275
f 277 279 276
f 277 280 279
f 277 281 280
f 277 278 281
f 224 281 278
f 280 282 279
f 280 283 282
f 280 284 283
f 280 281 284
f 224 284 281
f 283 285 282
f 283 286 285
f 283 287 286
f 283 284 287
f 224 287 284
f 286 288 285
f 286 289 288
f 286 290 289
f 286 287 290
f 224 290 287
f 289 291 288
f 289 292 291
f 289 293 292
f 289 290 293
f 224 293 290
f 292 294 291
f 292 295 294
f 292 296 295
f 292 293 296
f 224 296 293
f 295 297 294
f 295 298 297
f 295 299 298
f 295 296 299
f 224 299 296
f 298 300 297
f 298 301 300
f 298 302 301
f 298 299 302
f 224 302 299
f 301 303 300
f 301 304 303
f 301 305 304
f 301 302 305
f 224 305 302
f 304 306 303
f 304 307 306
f 304 308 307
f 304 305 308
f 224 308 305
f 307 309 306
f 307 310 309
f 307 311 310
f 307 308 311
f 224 311 308
f 310 312 309
f 310 313 312
f 310 314 313
f 310 311 314
f 224 314 311
f 313 315 312
f 313 316 315
f 313 317 316
f 313 314 317
f 224 317 314
f 316 318 315
f 316 319 318
f 316 320 319
f 316 317 320
f 224 320 317
f 319 321 318
f 319 322 321
f 319 323 322
f 319 320 323
f 224 323 320
f 322 324 321
f 322 325 324
f 322 326 325
f 322 323 326
f 224 326 323
f 325 327 324
f 325 328 327
f 325 329 328
f 325 326 329
f 224 329 326
f 328 330 327
f 328 331 330
f 328 332 331
f 328 329 332
f 224 332 329
f 331 333 330
f 331 334 333
f 331 335 334
f 331 332 335
f 224 335 332
f 334 336 333
f 334 337 336
f 334 338 337
f 334 335 338
f 224 338 335
f 337 339 336
f 337 340 339
f 337 341 340
f 337 338 341
f 224 341 338
f 340 342 339
f 340 343 342
f 340 344 343
f 340 341 344
f 224 344 341
f 343 345 342
f 343 346 345
f 343 347 346
f 343 344 347
f 224 347 344
f 346 348 345
f 346 349 348
f 346 350 349
f 346 347 350
f 224 350 347
f 349 351 348
f 349 352 351
f 349 353 352
f 349 350 353
f 224 353 350
f 352 354 351
f 352 355 354
f 352 356 355
f 352 353 356
f 224 356 353
f 355 357 354
f 355 358 357
f 355 359 358
f 355 356 359
f 224 359 356
f 358 360 357
f 358 361 360
f 358 362 361
f 358 359 362
f 224 362 359
f 361 363 360
f 361 364 363
f 361 365 364
f 361 362 365
f 224 365 362
f 364 366 363
f 364 367 366
f 364 368 367
f 364 365 368
f 224 368 365
f 367 369 366
f 367 370 369
f 367 371 370
f 367 368 371
f 224 371 368
f 370 372 369
f 370 373 372
f 370 374 373
f 370 371 374
f 224 374 371
f 373 375 372
f 373 376 375
f 373 377 376
f 373 374 377
f 224 377 374
f 376 378 375
f 376 379 378
f 376 380 379
f 376 377 380
f 224 380 377
f 379 381 378
f 379 382 381
f 379 383 382
f 379 380 383
f 224 383 380
f 382 384 381
f 382 385 384
f 382 386 385
f 382 383 386
f 224 386 383
f 385 387 384
f 385 388 387
f 385 389 388
f 385 386 389
f 224 389 386
f 388 390 387
f 388 391 390
f 388 392 391
f 388 389 392
f 224 392 389
f 391 393 390
f 391 394 393
f 391 395 394
f 391 392 395
f 224 395 392
f 394 396 393
f 394 397 396
f 394 398 397
f 394 395 398
f 224 398 395
f 397 399 396
f 397 400 399
f 397 401 400
f 397 398 401
f 224 401 398
f 400 402 399
f 400 403 402
f 400 404 403
f 400 401 404
f 224 404 401
f 403 405 402
f 403 406 405
f 403 407 406
f 403 404 407
f 224 407 404
f 406 408 405
f 406 409 408
f 406 410 409
f 406 407 410
f 224 410 407
f 409 411 408
f 409 412 411
f 409 413 412
f 409 410 413
f 224 413 410
f 412 414 411
f 412 415 414
f 412 416 415
f 412 413 416
f 224 416 413
f 415 417 414
f 415 418 417
f 415 419 418
f 415 416 419
f 224 419 416
f 418 420 417
f 418 421 420
f 418 422 421
f 418 419 422
f 224 422 419
f 421 423 420
f 421 424 423
f 421 425 424
f 421 422 425
f 224 425 422
f 424 426 423
f 424 427 426
f 424 428 427
f 424 425 428
f 224 428 425
f 427 429 426
f 427 430 429
f 427 431 430
f 427 428 431
f 224 431 428
f 430 432 429
f 430 433 432
f 430 434 433
f 430 431 434
f 224 434 431
f 433 220 432
f 433 218 220
f 433 223 218
f 433 434 223
f 224 223 434
f 220 219 3
f 220 3 2
f 219 225 8
f 219 8 3
f 225 228 11
f 225 11 8
f 228 231 14
f 228 14 11
f 231 234 17
f 231 17 14
f 234 237 20
f 234 20 17
f 237 240 23
f 237 23 20
f 240 243 26
f 240 26 23
f 243 246 29
f 243 29 26
f 246 249 32
f 246 32 29
f 249 252 35
f 249 35 32
f 252 255 38
f 252 38 35
f 255 258 41
f 255 41 38
f 258 261 44
f 258 44 41
f 261 264 47
f 261 47 44
f 264 267 50
f 264 50 47
f 267 270 53
f 267 53 50
f 270 273 56
f 270 56 53
f 273 276 59
f 273 59 56
f 276 279 62
f 276 62 59
f 279 282 65
f 279 65 62
f 282 285 68
f 282 68 65
f 285 288 71
f 285 71 68
f 288 291 74
f 288 74 71
f 291 294 77
f 291 77 74
f 294 297 80
f 294 80 77
f 297 300 83
f 297 83 80
f 300 303 86
f 300 86 83
f 303 306 89
f 303 89 86
f 306 309 92
f 306 92 89
f 309 312 95
f 309 95 92
f 312 315 98
f 312 98 95
f 315 318 101
f 315 101 98
f 318 321 104
f 318 104 101
f 321 324 107
f 321 107 104
f 324 327 110
f 324 110 107
f 327 330 113
f 327 113 110
f 330 333 116
f 330 116 113
f 333 336 119
f 333 119 116
f 336 339 122
f 336 122 119
f 339 342 125
f 339 125 122
f 342 345 128
f 342 128 125
f 345 348 131
f 345 131 128
f 348 351 134
f 348 134 131
f 351 354 137
f 351 137 134
f 354 357 140
f 354 140 137
f 357 360 143
f 357 143 140
f 360 363 146
f 360 146 143
f 363 366 149
f 363 149 146
f 366 369 152
f 366 152 149
f 369 372 155
f 369 155 152
f 372 375 158
f 372 158 155
f 375 378 161
f 375 161 158
f 378 381 164
f 378 164 161
f 381 384 167
f 381 167 164
f 384 387 170
f 384 170 167
f 387 390 173
f 387 173 170
f 390 393 176
f 390 176 173
f 393 396 179
f 393 179 176
f 396 399 182
f 396 182 179
f 399 402 185
f 399 185 182
f 402 405 188
f 402 188 185
f 405 408 191
f 405 191 188
f 408 411 194
f 408 194 191
f 411 414 197
f 411 197 194
f 414 417 200
f 414 200 197
f 417 420 203
f 417 203 200
f 420 423 206
f 420 206 203
f 423 426 209
f 423 209 206
f 426 429 212
f 426 212 209
f 429 432 215
f 429 215 212
f 432 220 2
f 432 2 215
